<?xml version="1.0" encoding="utf-8"?>
<!-- Generator: Adobe Illustrator 17.0.0, SVG Export Plug-In . SVG Version: 6.00 Build 0)  -->
<!DOCTYPE svg PUBLIC "-//W3C//DTD SVG 1.1//EN" "http://www.w3.org/Graphics/SVG/1.1/DTD/svg11.dtd">
<svg version="1.1" id="Layer_1" xmlns="http://www.w3.org/2000/svg" xmlns:xlink="http://www.w3.org/1999/xlink" x="0px" y="0px"
	 width="60px" height="32px" viewBox="0 0 60 32" enable-background="new 0 0 60 32" xml:space="preserve">
<g>
	<g>
		<path fill-rule="evenodd" clip-rule="evenodd" fill="#C5A47F" d="M57,30.504V14.053h-0.75l0.161-0.73l-37.5-8.226l-0.072,0.326
			L2.482,20.99l0.517,0.54H2.25v8.974H0V32h60v-1.496H57z M39,29.849V15.634l9.682,1.778l0.068-0.368v13.209L39,29.849z
			 M38.25,29.818l-6.75-0.28V14.257l6.75,1.24V29.818z M30.75,29.506l-10.5-0.436V12.19l10.5,1.929V29.506z M3.75,21.852l15-14.276
			v22.179l-0.031,0.749l0.013,0.001H3.75V21.852z M54.781,30.504L49.5,30.285V17.044h-0.75l0.068-0.368L39,14.874v-0.073h-0.395
			l-18.287-3.358L20.25,11.81V6.923l35.25,7.731v15.85H54.781z"/>
	</g>
</g>
</svg>
