<?xml version="1.0" encoding="utf-8"?>
<!-- Generator: Adobe Illustrator 17.0.0, SVG Export Plug-In . SVG Version: 6.00 Build 0)  -->
<!DOCTYPE svg PUBLIC "-//W3C//DTD SVG 1.1//EN" "http://www.w3.org/Graphics/SVG/1.1/DTD/svg11.dtd">
<svg version="1.1" id="Layer_1" xmlns="http://www.w3.org/2000/svg" xmlns:xlink="http://www.w3.org/1999/xlink" x="0px" y="0px"
	 width="45px" height="32px" viewBox="0 0 45 32" enable-background="new 0 0 45 32" xml:space="preserve">
<g>
	<g>
		<path fill-rule="evenodd" clip-rule="evenodd" fill="#C5A47F" d="M40.909,30.814V15.982l0.083-0.588l-3.589-0.867v-4.294
			l2.338,0.831v0.172h1.169V5.304l0.208-0.555L28.844,0.003l-0.208,0.555L28.436,0L4.474,8.899l0.201,0.558H4.091v11.56
			l-0.046,0.006l0.165,1.174l20.335-2.863v5.016L4.64,26.661H4.091v4.153H0V32h45v-1.186H40.909z M28.052,30.814H5.26v-3.031
			l19.936-2.313l-0.066-0.59h0v-5.628l0.046-0.006L25.13,18.92v-0.565h-0.079l-0.04-0.283L5.26,20.853V9.871l23.372-8.68
			L39.74,5.487v4.32L28.829,5.93L28.733,6.21l-0.154-0.538l-16.891,4.992v-0.02H10.52v5.329l-0.077,0.015l0.155,1.177l17.455-3.43
			V30.814z M28.559,12.428l-16.871,3.314v-3.844l16.794-4.962L28.443,7.05l8.375,2.975v4.361l-8.099-1.958l-0.083,0.587
			L28.559,12.428z M39.74,30.814H28.636V13.623l11.104,2.684V30.814z M7.013,22.508v2.966h1.169v-2.966H7.013z"/>
	</g>
</g>
</svg>
