<?xml version="1.0" encoding="utf-8"?>
<!-- Generator: Adobe Illustrator 17.0.0, SVG Export Plug-In . SVG Version: 6.00 Build 0)  -->
<!DOCTYPE svg PUBLIC "-//W3C//DTD SVG 1.1//EN" "http://www.w3.org/Graphics/SVG/1.1/DTD/svg11.dtd">
<svg version="1.1" id="Layer_1" xmlns="http://www.w3.org/2000/svg" xmlns:xlink="http://www.w3.org/1999/xlink" x="0px" y="0px"
	 width="60px" height="32px" viewBox="0 0 60 32" enable-background="new 0 0 60 32" xml:space="preserve">
<g>
	<g>
		<path fill-rule="evenodd" clip-rule="evenodd" fill="#C5A47F" d="M59.46,18.107L60,16.978L26.276,0.008l-0.27,0.565L25.753,0
			L0,11.942l0.505,1.145l6.492-3.01v20.665H3.932V32h29.432v-2.515h19.621v-1.257h-3.066V13.306L59.46,18.107z M8.224,30.742V18.8
			H32.75v11.941H8.224z M33.364,18.8h7.971v-1.257H26.619V1.83h-0.613v15.713H8.224V9.508l17.771-8.24l15.34,7.719l0,19.241h-7.971
			V18.8z M49.306,13.143v15.084h-6.745l0-18.624l7.035,3.54H49.306z"/>
	</g>
</g>
</svg>
