<svg xmlns="http://www.w3.org/2000/svg" xmlns:xlink="http://www.w3.org/1999/xlink" viewBox="0 0 2647.29 1405.85"><defs><style>.cls-1{fill:url(#radial-gradient);}.cls-2{fill:url(#radial-gradient-2);}.cls-3{fill:url(#radial-gradient-3);}.cls-4{fill:none;clip-rule:evenodd;}.cls-5{fill-rule:evenodd;fill:url(#GradientFill_9);}.cls-6{mask:url(#mask);}.cls-7{fill:#740c10;}.cls-8{mask:url(#mask-2);}.cls-9{clip-path:url(#clip-path);}.cls-10{fill:url(#linear-gradient);}.cls-11{clip-path:url(#clip-path-2);}.cls-12{fill:url(#linear-gradient-2);}.cls-13{clip-path:url(#clip-path-3);}.cls-14{fill:url(#linear-gradient-3);}.cls-15{mask:url(#mask-3);}.cls-16{fill:#fff;}.cls-17{fill:url(#linear-gradient-4);}.cls-18{filter:url(#luminosity-noclip-3);}.cls-19{filter:url(#luminosity-noclip-2);}.cls-20{filter:url(#luminosity-noclip);}</style><radialGradient id="radial-gradient" cx="-1139.05" cy="-2590.32" r="264.73" gradientTransform="translate(3770.33 4955.29) scale(1.98 1.73)" gradientUnits="userSpaceOnUse"><stop offset="0" stop-color="#fff"/><stop offset="0.12" stop-color="#e5e5e5"/><stop offset="0.37" stop-color="#a3a3a3"/><stop offset="0.73" stop-color="#3a3a3a"/><stop offset="0.92"/></radialGradient><radialGradient id="radial-gradient-2" cx="-984.33" cy="-1340.18" r="264.73" gradientTransform="translate(3411.89 2777.79) scale(1.89 1.36)" xlink:href="#radial-gradient"/><radialGradient id="radial-gradient-3" cx="-204.32" cy="-1584.58" r="264.72" gradientTransform="translate(1909.22 2339.25) scale(1.5 1.31)" xlink:href="#radial-gradient"/><linearGradient id="GradientFill_9" y1="667.24" x2="1435.1" y2="667.24" gradientUnits="userSpaceOnUse"><stop offset="0" stop-color="#9f2b31"/><stop offset="0.5" stop-color="#cb2228"/><stop offset="1" stop-color="#a32b31"/></linearGradient><filter id="luminosity-noclip" x="970.11" y="-17.51" width="1098.48" height="963.94" filterUnits="userSpaceOnUse" color-interpolation-filters="sRGB"><feFlood flood-color="#fff" result="bg"/><feBlend in="SourceGraphic" in2="bg"/></filter><mask id="mask" x="970.11" y="71.84" width="1098.48" height="963.94" maskUnits="userSpaceOnUse"><g class="cls-20"><g transform="translate(0 89.35)"><ellipse class="cls-1" cx="1519.35" cy="464.46" rx="549.24" ry="481.97"/></g></g></mask><filter id="luminosity-noclip-2" x="1021.3" y="572.54" width="1052.71" height="757.72" filterUnits="userSpaceOnUse" color-interpolation-filters="sRGB"><feFlood flood-color="#fff" result="bg"/><feBlend in="SourceGraphic" in2="bg"/></filter><mask id="mask-2" x="1021.3" y="661.89" width="1052.71" height="757.72" maskUnits="userSpaceOnUse"><g class="cls-19"><g transform="translate(0 89.35)"><ellipse class="cls-2" cx="1547.66" cy="951.4" rx="526.36" ry="378.86"/></g></g></mask><clipPath id="clip-path" transform="translate(0 89.35)"><path class="cls-4" d="M1590.15,1204.34q-221.31-.55-340.67-161-119.77-161-119.77-391.22,0-248.88,126.78-399.78Q1382.79,102,1590.15,101.46V345.69q-45.64.38-77.78,22.54-32.68,22.56-49.78,53.67T1436.15,502q-9.35,49-10.9,82.45t-1.55,80.1q0,294.2,166.45,295.54Z"/></clipPath><linearGradient id="linear-gradient" x1="1313.52" y1="323.7" x2="1407.13" y2="1167.96" gradientUnits="userSpaceOnUse"><stop offset="0" stop-color="#fff"/><stop offset="1" stop-color="#ffa400"/></linearGradient><clipPath id="clip-path-2" transform="translate(0 89.35)"><path class="cls-4" d="M1591.7,101.46q149.34,0,255.89,79.34t154.77,200.65q48.24,121.33,48.23,269.13,0,150.88-47.44,273.77t-154,201.44q-106.55,78.57-257.44,78.56h-1.55V960.1l1.55,0q166.44,0,166.45-309.54,0-155.57-40.44-230.24t-126-74.66h-1.55V101.46Z"/></clipPath><linearGradient id="linear-gradient-2" x1="1853.64" y1="928.74" x2="1777.34" y2="501.05" xlink:href="#linear-gradient"/><clipPath id="clip-path-3" transform="translate(0 89.35)"><path class="cls-4" d="M1603.08,345.68q-46.65,0-79.32,22.55T1474,421.9Q1456.87,453,1447.53,502t-10.89,82.45q-1.56,33.43-1.56,80.1,0,295.56,168,295.56,166.45,0,166.45-309.54,0-155.57-40.44-230.24t-126-74.66m0-244.22q149.34,0,255.89,79.34t154.78,200.65Q2062,502.79,2062,650.58q0,150.88-47.44,273.77t-154,201.44q-106.55,78.57-257.44,78.56-222.45,0-342.22-161T1141.09,652.12q0-248.88,126.78-399.78T1603.08,101.46Z"/></clipPath><linearGradient id="linear-gradient-3" x1="1748.64" y1="410" x2="1438.72" y2="1109.98" gradientUnits="userSpaceOnUse"><stop offset="0" stop-color="#fc0"/><stop offset="0.37" stop-color="#ffb000"/><stop offset="0.76" stop-color="#f90"/><stop offset="1" stop-color="#ff9100"/></linearGradient><filter id="luminosity-noclip-3" x="1185.61" y="-102.59" width="834.03" height="728.91" filterUnits="userSpaceOnUse" color-interpolation-filters="sRGB"><feFlood flood-color="#fff" result="bg"/><feBlend in="SourceGraphic" in2="bg"/></filter><mask id="mask-3" x="1185.61" y="-13.24" width="834.03" height="728.91" maskUnits="userSpaceOnUse"><g class="cls-18"><g transform="translate(0 89.35)"><ellipse class="cls-3" cx="1602.63" cy="261.86" rx="417.02" ry="364.45"/></g></g></mask><linearGradient id="linear-gradient-4" x1="1766.48" y1="1639.89" x2="2308.58" y2="1639.89" gradientTransform="translate(178.71 -782.58) rotate(-5.54)" xlink:href="#linear-gradient-3"/></defs><g id="Layer_2" data-name="Layer 2"><g id="Layer_1-2" data-name="Layer 1"><path class="cls-5" d="M276.28,242.86H1435.1V667.24c0,233.41-124.32,424.38-276.27,424.38H0V667.24C0,433.83,124.32,242.86,276.28,242.86Z" transform="translate(0 89.35)"/><g class="cls-6"><ellipse class="cls-7" cx="1519.35" cy="553.81" rx="541.87" ry="464.46"/></g><g class="cls-8"><ellipse class="cls-7" cx="1547.66" cy="1040.76" rx="519.29" ry="365.1"/></g><g class="cls-9"><rect class="cls-10" x="1129.71" y="190.81" width="460.44" height="1102.88"/></g><g class="cls-11"><rect class="cls-12" x="1590.15" y="190.81" width="460.44" height="1102.89"/></g><g class="cls-13"><rect class="cls-14" x="1141.09" y="190.81" width="920.88" height="1102.89"/><g class="cls-15"><ellipse class="cls-16" cx="1602.63" cy="351.21" rx="411.42" ry="351.21"/></g></g><path class="cls-16" d="M331.12,466.58H263.66V401.74H475.21v64.84H407.75V631H331.12Zm161.44-64.84h112c37.66,0,65.17,8.85,82.53,26.2C701.16,442,708,460,708,482.3V483C708,515.05,693,538.3,662.84,553L716.22,631H628.79l-43.23-65.49H569.19V631H492.56Zm109.7,109.05c19.65,0,29.47-7.53,29.47-22.27v-.65c0-14.74-9.82-21.94-29.14-21.94h-33.4v44.86ZM806.6,400.11h76L979.18,631H896l-12.12-30.78H803.65L791.86,631H710Zm-1.64-76c9.5-1,17.36-1.63,23.91-1.63,17,0,30.45,2.62,40.6,7.85,10.16,4.92,15.07,11.79,15.07,20.64,0,10.8-6.22,20.63-19,30.12H819.7c6.22-5.56,9.5-10.8,9.5-15.72,0-7.2-8.19-10.47-24.24-9.82Zm59.93,221.7-21-55.67-21,55.67ZM278.21,881.14v-.65c0-34.39,12.12-62.88,36-85.47s54-34.06,90.38-34.06c37.34,0,69.43,11.46,95.95,34.71l-42.9,51.74c-15.71-13.42-32.74-20-50.75-20-14.74,0-27.18,5.24-37,15.39-9.49,10.15-14.41,23.25-14.41,38.64v.65c0,16,5.24,29.48,15.39,39.63s23.26,15.06,39.3,15.06c11.14,0,20-1.63,26.2-5.24V908.65h-39.3V859.53h111v106.1Q465.85,1000,406.91,1000c-36.35,0-66.81-10.8-91-32.74C290.65,944.67,278.21,916.18,278.21,881.14Zm246.91,0v-.65c0-33.4,12.12-61.57,36.35-84.82S615.5,761,650.54,761s64.84,11.46,89.07,34.38c23.91,22.93,35.7,51.09,35.7,84.49v.66c0,33.4-12.12,61.56-36,84.81-24.56,23.25-54.36,34.71-89.4,34.71s-64.84-11.46-88.75-34.38S525.12,914.54,525.12,881.14Zm172.91,0v-.65c0-14.08-4.26-26.2-13.1-36-9.17-10.48-21-15.72-35-15.72S624,834,615.17,844.14c-8.51,9.82-12.77,21.61-12.77,35.69v.66c0,14.08,4.26,26.2,13.1,36,9.17,10.48,21,15.72,35,15.72s25.87-5.24,34.71-15.39C693.77,907,698,895.22,698,881.14Zm-45.2-186.33,75.65,17-52.4,37.66H621.4Zm143.43,71.06H899.42c31.43,0,56,6.88,74,20.31,19,14.4,28.49,34.71,28.49,61.23v.66c0,27.18-9.5,48.14-28.82,63.2-18.67,14.41-43.56,21.61-75.32,21.61H872.89V995.1H796.26ZM893.52,878.2c21.94,0,32.75-8.52,32.75-25.22v-.66c0-16.7-10.81-25.21-32.42-25.21h-21V878.2Z" transform="translate(0 89.35)"/><path class="cls-17" d="M2485.19,403.93l101.55-9.85L2400,673.54,2250.44,901.88l-101.55,9.85L2332.09,638ZM2082.84,542.77v-1.35c0-37.16,11.48-68.24,35.13-93.24,23.65-26.35,55.41-39.18,93.92-39.18s70.26,12.83,93.91,39.18c23.65,25,35.14,56.08,35.14,93.24v1.35c0,37.16-12.17,68.24-35.81,93.24-24.33,26.35-55.41,39.19-93.24,39.19S2143,662.36,2118.65,636C2095,611,2082.84,579.93,2082.84,542.77Zm93.91-1.35v1.35c0,13.52,3.38,25,10.81,33.79,6.76,8.78,14.87,12.83,24.33,12.83s17.56-4,24.32-12.16c7.43-8.78,10.81-20.27,10.81-34.46v-1.35c0-14.19-3.38-25-10.13-33.78s-14.87-12.84-25-12.84-18.24,4.06-25,12.16Q2176.75,520.15,2176.75,541.42Zm212.44,223V763c0-37.16,11.49-68.24,35.13-93.23,23.65-26.36,55.41-39.19,93.92-39.19s70.26,12.83,93.91,39.19c23.65,25,35.14,56.07,35.14,93.23v1.36c0,37.16-12.17,68.24-35.81,93.24-24.33,26.34-55.41,39.18-93.24,39.18S2449.32,884,2425,857.63C2401.35,832.63,2389.19,801.55,2389.19,764.39Zm164.18,0V763c0-14.18-3.38-25-10.13-33.78s-14.87-12.84-25-12.84-18.25,4.06-25,12.17Q2483.1,741.75,2483.1,763v1.36c0,13.51,3.38,25,10.81,33.78,6.76,8.78,14.87,12.83,24.33,12.83s17.56-4,24.32-12.16C2550,790.06,2553.37,778.57,2553.37,764.39Z" transform="translate(0 89.35)"/></g></g></svg>