<?xml version="1.0" standalone="no"?>
<!DOCTYPE svg PUBLIC "-//W3C//DTD SVG 1.1//EN" "http://www.w3.org/Graphics/SVG/1.1/DTD/svg11.dtd" >
<svg>
<metadata>
Created by FontForge 20090622 at Fri Jan 12 06:47:20 2018
 By deploy user
Google
</metadata>
<defs>
<font id="UVF-ProductSans-Regular" horiz-adv-x="542" >
  <font-face 
    font-family="UVF-ProductSans"
    font-weight="400"
    font-stretch="normal"
    units-per-em="1000"
    panose-1="2 11 5 3 3 5 2 4 2 3"
    ascent="750"
    descent="-250"
    x-height="490"
    cap-height="716"
    bbox="-176 -253 3284 1117"
    underline-thickness="84"
    underline-position="-160"
    unicode-range="U+0020-U+FB02"
  />
<missing-glyph horiz-adv-x="570" 
d="M72 0v716h426v-716h-426zM136 656v-596h298v596h-298z" />
    <glyph glyph-name="f_i" unicode="fi" horiz-adv-x="584" 
d="M290 720q44 0 74 -13l-32 -79q-16 8 -42 8q-36 0 -59 -21.5t-23 -62.5v-62h312v-490h-92v406h-220v-406h-92v406h-92v84h92v65q0 75 48 120t126 45zM520 613q-19 -19 -46 -19t-46 19t-19 46t19 46t46 19t46 -19t19 -46t-19 -46z" />
    <glyph glyph-name="f_l" unicode="fl" horiz-adv-x="576" 
d="M208 490h128v-84h-128v-406h-92v406h-92v84h92v65q0 75 48 120t126 45h230v-720h-92v636h-138q-36 0 -59 -21.5t-23 -62.5v-62z" />
    <glyph glyph-name="f_f_l" unicode="ffl" horiz-adv-x="888" 
d="M290 720q44 0 74 -13l-32 -79q-16 8 -42 8q-36 0 -59 -21.5t-23 -62.5v-62h220v65q0 75 48 120t126 45h230v-720h-92v636h-138q-36 0 -59 -21.5t-23 -62.5v-62h128v-84h-128v-406h-92v406h-220v-406h-92v406h-92v84h92v65q0 75 48 120t126 45z" />
    <glyph glyph-name="f_f_i" unicode="ffi" horiz-adv-x="896" 
d="M602 720q44 0 74 -13l-32 -79q-16 8 -42 8q-36 0 -59 -21.5t-23 -62.5v-62h312v-490h-92v406h-220v-406h-92v406h-220v-406h-92v406h-92v84h92v65q0 75 48 120t126 45q44 0 74 -13l-32 -79q-16 8 -42 8q-36 0 -59 -21.5t-23 -62.5v-62h128h92v65q0 75 48 120t126 45z
M832 613q-19 -19 -46 -19t-46 19t-19 46t19 46t46 19t46 -19t19 -46t-19 -46z" />
    <glyph glyph-name="f_t" unicode="ft" horiz-adv-x="672" 
d="M586 -8q-77 0 -117.5 41t-40.5 116v257h-220v-406h-92v406h-92v84h92v65q0 75 48 120t126 45q44 0 74 -13l-32 -79q-16 8 -42 8q-36 0 -59 -21.5t-23 -62.5v-62h220v150h92v-150h120v-84h-120v-250q0 -80 66 -80q25 0 42 8l32 -79q-30 -13 -74 -13z" />
    <glyph glyph-name="f_f_t" unicode="fft" horiz-adv-x="984" 
d="M602 720q44 0 74 -13l-32 -79q-16 8 -42 8q-36 0 -59 -21.5t-23 -62.5v-62h220v150h92v-150h120v-84h-120v-250q0 -80 66 -80q25 0 42 8l32 -79q-30 -13 -74 -13q-77 0 -117.5 41t-40.5 116v257h-220v-406h-92v406h-220v-406h-92v406h-92v84h92v65q0 75 48 120t126 45
q44 0 74 -13l-32 -79q-16 8 -42 8q-36 0 -59 -21.5t-23 -62.5v-62h128h92v65q0 75 48 120t126 45z" />
    <glyph glyph-name="f_f" unicode="ff" horiz-adv-x="680" 
d="M602 720q44 0 74 -13l-32 -79q-16 8 -42 8q-36 0 -59 -21.5t-23 -62.5v-62h128v-84h-128v-406h-92v406h-220v-406h-92v406h-92v84h92v65q0 75 48 120t126 45q44 0 74 -13l-32 -79q-16 8 -42 8q-36 0 -59 -21.5t-23 -62.5v-62h128h92v65q0 75 48 120t126 45z" />
    <glyph glyph-name="t_t" unicode="tt" horiz-adv-x="674" 
d="M588 -8q-77 0 -117.5 41t-40.5 116v257h-228v-250q0 -80 66 -80q25 0 42 8l32 -79q-30 -13 -74 -13q-77 0 -117.5 41t-40.5 116v257h-86v84h86v150h92v-150h228v150h92v-150h120v-84h-120v-250q0 -80 66 -80q25 0 42 8l32 -79q-30 -13 -74 -13z" />
    <glyph glyph-name="r_f" unicode="rf" horiz-adv-x="748" 
d="M670 720q44 0 74 -13l-32 -79q-16 8 -42 8q-36 0 -59 -21.5t-23 -62.5v-62h128v-84h-128v-406h-92v406h-92v84h92v65q0 75 48 120t126 45zM144 490v-80h4q16 43 59.5 67.5t95.5 24.5q15 0 33 -2v-90q-19 2 -37 2q-66 0 -108.5 -38.5t-42.5 -105.5v-268h-92v490h88z" />
    <glyph glyph-name="r_t" unicode="rt" horiz-adv-x="734" 
d="M648 -8q-77 0 -117.5 41t-40.5 116v257h-86v84h86v150h92v-150h120v-84h-120v-250q0 -80 66 -80q25 0 42 8l32 -79q-30 -13 -74 -13zM144 490v-80h4q16 43 59.5 67.5t95.5 24.5q15 0 33 -2v-90q-19 2 -37 2q-66 0 -108.5 -38.5t-42.5 -105.5v-268h-92v490h88z" />
    <glyph glyph-name="r_f_f" unicode="rff" horiz-adv-x="1060" 
d="M982 720q44 0 74 -13l-32 -79q-16 8 -42 8q-36 0 -59 -21.5t-23 -62.5v-62h128v-84h-128v-406h-92v406h-220v-406h-92v406h-92v84h92v65q0 75 48 120t126 45q44 0 74 -13l-32 -79q-16 8 -42 8q-36 0 -59 -21.5t-23 -62.5v-62h220v65q0 75 48 120t126 45zM144 490v-80h4
q16 43 59.5 67.5t95.5 24.5q15 0 33 -2v-90q-19 2 -37 2q-66 0 -108.5 -38.5t-42.5 -105.5v-268h-92v490h88z" />
    <glyph glyph-name="f_j" unicode="fj" horiz-adv-x="584" 
d="M290 720q44 0 74 -13l-32 -79q-16 8 -42 8q-36 0 -59 -21.5t-23 -62.5v-62h312v-556q0 -81 -39 -120.5t-108 -39.5q-27 0 -54 10l24 80q13 -6 27 -6q58 0 58 76v472h-220v-406h-92v406h-92v84h92v65q0 75 48 120t126 45zM520 613q-19 -19 -46 -19t-46 19t-19 46t19 46
t46 19t46 -19t19 -46t-19 -46z" />
    <glyph glyph-name="t_f" unicode="tf" horiz-adv-x="682" 
d="M202 406v-250q0 -80 66 -80q25 0 42 8l32 -79q-30 -13 -74 -13q-77 0 -117.5 41t-40.5 116v257h-86v84h86v150h92v-150h228v65q0 75 48 120t126 45q44 0 74 -13l-32 -79q-16 8 -42 8q-36 0 -59 -21.5t-23 -62.5v-62h128v-84h-128v-406h-92v406h-228z" />
    <glyph glyph-name="f_f_j" unicode="ffj" horiz-adv-x="896" 
d="M602 720q44 0 74 -13l-32 -79q-16 8 -42 8q-36 0 -59 -21.5t-23 -62.5v-62h312v-556q0 -81 -39 -120.5t-108 -39.5q-27 0 -54 10l24 80q13 -6 27 -6q58 0 58 76v472h-220v-406h-92v406h-220v-406h-92v406h-92v84h92v65q0 75 48 120t126 45q44 0 74 -13l-32 -79
q-16 8 -42 8q-36 0 -59 -21.5t-23 -62.5v-62h128h92v65q0 75 48 120t126 45zM832 613q-19 -19 -46 -19t-46 19t-19 46t19 46t46 19t46 -19t19 -46t-19 -46z" />
    <glyph glyph-name="f_b" unicode="fb" horiz-adv-x="948" 
d="M208 490h128v-84h-128v-406h-92v406h-92v84h92v65q0 75 48 120t126 45h230v-230l-4 -68h4q22 36 66.5 60t100.5 24q95 0 164 -75t69 -186t-69 -186t-164 -75q-56 0 -100.5 24t-66.5 60h-4v-68h-88v636h-138q-36 0 -59 -21.5t-23 -62.5v-62zM672 68q64 0 110 48.5
t46 128.5t-46 128.5t-110 48.5q-65 0 -110.5 -48t-45.5 -129t45.5 -129t110.5 -48z" />
    <glyph glyph-name="f_f_b" unicode="ffb" horiz-adv-x="1260" 
d="M290 720q44 0 74 -13l-32 -79q-16 8 -42 8q-36 0 -59 -21.5t-23 -62.5v-62h220v65q0 75 48 120t126 45h230v-230l-4 -68h4q22 36 66.5 60t100.5 24q95 0 164 -75t69 -186t-69 -186t-164 -75q-56 0 -100.5 24t-66.5 60h-4v-68h-88v636h-138q-36 0 -59 -21.5t-23 -62.5v-62
h128v-84h-128v-406h-92v406h-220v-406h-92v406h-92v84h92v65q0 75 48 120t126 45zM984 68q64 0 110 48.5t46 128.5t-46 128.5t-110 48.5q-65 0 -110.5 -48t-45.5 -129t45.5 -129t110.5 -48z" />
    <glyph glyph-name="f_h" unicode="fh" horiz-adv-x="914" 
d="M208 490h128v-84h-128v-406h-92v406h-92v84h92v65q0 75 48 120t126 45h230v-230l-4 -68h4q20 35 63 59.5t92 24.5q91 0 139 -56t48 -150v-300h-92v286q0 136 -121 136q-57 0 -93 -45.5t-36 -105.5v-271h-92v636h-138q-36 0 -59 -21.5t-23 -62.5v-62z" />
    <glyph glyph-name="f_f_h" unicode="ffh" horiz-adv-x="1226" 
d="M290 720q44 0 74 -13l-32 -79q-16 8 -42 8q-36 0 -59 -21.5t-23 -62.5v-62h220v65q0 75 48 120t126 45h230v-230l-4 -68h4q20 35 63 59.5t92 24.5q91 0 139 -56t48 -150v-300h-92v286q0 136 -121 136q-57 0 -93 -45.5t-36 -105.5v-271h-92v636h-138q-36 0 -59 -21.5
t-23 -62.5v-62h128v-84h-128v-406h-92v406h-220v-406h-92v406h-92v84h92v65q0 75 48 120t126 45z" />
    <glyph glyph-name="f_k" unicode="fk" horiz-adv-x="855" 
d="M208 490h128v-84h-128v-406h-92v406h-92v84h92v65q0 75 48 120t126 45h230v-445l212 215h118v-4l-191 -191l200 -291v-4h-111l-154 231l-74 -74v-157h-92v636h-138q-36 0 -59 -21.5t-23 -62.5v-62z" />
    <glyph glyph-name="f_f_k" unicode="ffk" horiz-adv-x="1167" 
d="M290 720q44 0 74 -13l-32 -79q-16 8 -42 8q-36 0 -59 -21.5t-23 -62.5v-62h220v65q0 75 48 120t126 45h230v-445l212 215h118v-4l-191 -191l200 -291v-4h-111l-154 231l-74 -74v-157h-92v636h-138q-36 0 -59 -21.5t-23 -62.5v-62h128v-84h-128v-406h-92v406h-220v-406
h-92v406h-92v84h92v65q0 75 48 120t126 45z" />
    <glyph glyph-name=".notdef" horiz-adv-x="570" 
d="M72 0v716h426v-716h-426zM136 656v-596h298v596h-298z" />
    <glyph glyph-name="NULL" horiz-adv-x="0" 
 />
    <glyph glyph-name="nonmarkingreturn" horiz-adv-x="333" 
 />
    <glyph glyph-name="_3" horiz-adv-x="0" 
 />
    <glyph glyph-name="space" unicode=" " horiz-adv-x="220" 
 />
    <glyph glyph-name="exclam" unicode="!" horiz-adv-x="232" 
d="M164 14q-20 -20 -48 -20t-48 20t-20 48t20 48t48 20t48 -20t20 -48t-20 -48zM80 222l-10 268v226h92v-226l-10 -268h-72z" />
    <glyph glyph-name="quotedbl" unicode="&#x22;" horiz-adv-x="320" 
d="M276 490h-84v226h84v-226zM128 490h-84v226h84v-226z" />
    <glyph glyph-name="numbersign" unicode="#" horiz-adv-x="632" 
d="M196 0h-80l30 203h-123l13 76h122l20 135h-125l12 76h124l29 194h80l-29 -194h136l29 194h80l-29 -194h123l-12 -76h-122l-20 -135h125l-12 -76h-125l-30 -203h-80l30 203h-136zM258 414l-20 -135h136l20 135h-136z" />
    <glyph glyph-name="dollar" unicode="$" horiz-adv-x="533" 
d="M233 -100v86q-71 10 -130.5 57t-78.5 126l82 33q12 -48 46.5 -83t80.5 -44v240q-3 0 -5 2q-179 70 -179 200q0 68 50 120.5t134 60.5v86h76v-88q70 -11 112.5 -50.5t56.5 -83.5l-82 -35q-7 25 -29.5 47.5t-57.5 31.5v-225q87 -36 135.5 -80.5t48.5 -118.5q0 -84 -53 -133
t-131 -61v-88h-76zM401 180q0 35 -23 58.5t-69 45.5v-207q42 9 67 35.5t25 67.5zM141 517q0 -63 92 -105v197q-42 -7 -67 -31.5t-25 -60.5z" />
    <glyph glyph-name="percent" unicode="%" horiz-adv-x="814" 
d="M213 -8l-57 37l445 663l56 -38zM323 409q-50 -51 -120 -51t-120.5 51t-50.5 120t50.5 120t120.5 51t120.5 -51t50.5 -120t-51 -120zM300 529q0 45 -28 74.5t-69 29.5t-69 -29.5t-28 -74.5q0 -44 28 -74t69 -30t69 30t28 74zM731 35q-50 -51 -120 -51t-120.5 51t-50.5 120
t50.5 120t120.5 51t120.5 -51t50.5 -120t-51 -120zM708 155q0 45 -28 74.5t-69 29.5t-69 -29.5t-28 -74.5q0 -44 28 -74t69 -30t69 30t28 74z" />
    <glyph glyph-name="ampersand" unicode="&#x26;" horiz-adv-x="618" 
d="M597 256l-83 -133l67 -87l-69 -52l-49 65q-70 -65 -166 -65q-109 0 -185 73t-76 180q0 62 33 119t91 92q-52 69 -52 119q0 69 51 117t122 48q60 0 101.5 -34.5t58.5 -86.5l-79 -42q-28 75 -81 75q-34 0 -57 -20.5t-23 -56.5q0 -34 23 -64l237 -310l64 107zM297 68
q70 0 115 48l-202 265q-41 -23 -65.5 -62t-24.5 -82q0 -73 51.5 -121t125.5 -48z" />
    <glyph glyph-name="quotesingle" unicode="'" horiz-adv-x="172" 
d="M128 490h-84v226h84v-226z" />
    <glyph glyph-name="parenleft" unicode="(" horiz-adv-x="330" 
d="M310 732q-67 -80 -110.5 -189.5t-43.5 -220.5t43.5 -220.5t110.5 -189.5l-68 -48q-72 84 -125 203.5t-53 254.5t53 254.5t125 203.5z" />
    <glyph glyph-name="parenright" unicode=")" horiz-adv-x="330" 
d="M20 732l68 48q72 -84 125 -203.5t53 -254.5t-53 -254.5t-125 -203.5l-68 48q67 80 110.5 189.5t43.5 220.5t-43.5 220.5t-110.5 189.5z" />
    <glyph glyph-name="asterisk" unicode="*" horiz-adv-x="436" 
d="M40 562l24 73l111 -40l5 2v119h76v-119l4 -2l112 40l24 -73l-112 -38l-2 -7l77 -104l-62 -45l-76 104h-6l-76 -104l-62 45l77 104l-2 7z" />
    <glyph glyph-name="plus" unicode="+" horiz-adv-x="550" 
d="M313 490v-181h181v-76h-181v-181h-76v181h-181v76h181v181h76z" />
    <glyph glyph-name="comma" unicode="," horiz-adv-x="232" 
d="M87 -112l-43 28l58 84q-22 4 -38 20.5t-16 41.5q0 28 20 48t48 20t48 -20t20 -48q0 -29 -30 -74z" />
    <glyph glyph-name="hyphen" unicode="-" horiz-adv-x="432" 
d="M56 272v76h320v-76h-320z" />
    <glyph glyph-name="period" unicode="." horiz-adv-x="232" 
d="M164 14q-20 -20 -48 -20t-48 20t-20 48t20 48t48 20t48 -20t20 -48t-20 -48z" />
    <glyph glyph-name="slash" unicode="/" horiz-adv-x="437" 
d="M94 -46l-74 30l323 778l74 -30z" />
    <glyph glyph-name="zero" unicode="0" horiz-adv-x="638" 
d="M44 342q0 153 76 255.5t199 102.5t199 -102.5t76 -255.5q0 -152 -76 -255t-199 -103t-199 103t-76 255zM319 72q82 0 131.5 77t49.5 193q0 117 -49.5 193.5t-131.5 76.5q-83 0 -132 -76.5t-49 -193.5q0 -116 49 -193t132 -77z" />
    <glyph glyph-name="one" unicode="1" horiz-adv-x="384" 
d="M300 0h-92v570l-133 -58l-35 78l201 94h59v-684z" />
    <glyph glyph-name="two" unicode="2" horiz-adv-x="520" 
d="M476 0h-436v92q196 197 251 257q49 55 66 83.5t17 70.5q0 43 -34 76t-91 33q-52 0 -84 -30.5t-41 -65.5l-84 34q17 54 71 102t140 48q95 0 156 -58t61 -139q0 -100 -109 -214l-200 -201h317v-88z" />
    <glyph glyph-name="three" unicode="3" horiz-adv-x="531" 
d="M260 -16q-69 0 -134 43t-90 128l84 35q16 -56 53 -87t87 -31q56 0 96.5 35t40.5 87q0 51 -41.5 86t-99.5 35h-59v86h52q54 0 89.5 30t35.5 80q0 47 -34.5 74t-85.5 27q-88 0 -119 -89l-85 36q20 55 71 98t133 43q92 0 153 -53.5t61 -135.5q0 -99 -92 -147v-4
q50 -21 82.5 -64t32.5 -102q0 -91 -67 -150.5t-164 -59.5z" />
    <glyph glyph-name="four" unicode="4" horiz-adv-x="589" 
d="M457 0h-92v144h-325v70l317 470h100v-454h88v-86h-88v-144zM365 230v319h-4l-217 -319h221z" />
    <glyph glyph-name="five" unicode="5" horiz-adv-x="555" 
d="M271 -16q-74 0 -141.5 47.5t-89.5 137.5l82 33q15 -58 54 -94t93 -36q63 0 104 39t41 102q0 62 -40 102.5t-104 40.5q-72 0 -115 -59l-93 40l44 347h359v-88h-282l-25 -196l4 -1q51 41 124 41q90 0 155.5 -64.5t65.5 -161.5t-67.5 -163.5t-168.5 -66.5z" />
    <glyph glyph-name="six" unicode="6" horiz-adv-x="549" 
d="M295 437q80 0 147 -65.5t67 -158.5q0 -91 -69.5 -160t-164.5 -69q-102 0 -168.5 69.5t-66.5 159.5q0 95 80 212l186 275l74 -51l-163 -226l2 -2q25 16 76 16zM275 73q58 0 99.5 40t41.5 99q0 58 -41.5 98.5t-99.5 40.5t-100 -40.5t-42 -98.5q0 -59 41.5 -99t100.5 -40z
" />
    <glyph glyph-name="seven" unicode="7" horiz-adv-x="523" 
d="M151 -16l-82 42l317 570h-346l2 88h441v-94z" />
    <glyph glyph-name="eight" unicode="8" horiz-adv-x="544" 
d="M40 189q0 57 31 100.5t81 68.5v4q-39 25 -64 63.5t-25 80.5q0 83 59 138.5t150 55.5t150 -55.5t59 -138.5q0 -42 -25 -80.5t-64 -63.5v-4q50 -25 81 -68.5t31 -100.5q0 -87 -67 -146t-165 -59t-165 59t-67 146zM189 430q33 -29 83 -29t82.5 29.5t32.5 77.5t-32.5 76
t-82.5 28t-82.5 -28t-32.5 -76t32 -78zM410 194q0 53 -40 87t-98 34t-98 -34t-40 -87q0 -54 40 -88t98 -34t98 34t40 88z" />
    <glyph glyph-name="nine" unicode="9" horiz-adv-x="549" 
d="M254 247q-80 0 -147 65.5t-67 158.5q0 91 69.5 160t164.5 69q102 0 168.5 -69.5t66.5 -159.5q0 -93 -80 -210l-186 -277l-74 51l163 226l-2 2q-25 -16 -76 -16zM274 611q-58 0 -99.5 -40t-41.5 -99q0 -58 41.5 -98.5t99.5 -40.5t100 40.5t42 98.5q0 59 -41.5 99
t-100.5 40z" />
    <glyph glyph-name="colon" unicode=":" horiz-adv-x="232" 
d="M164 14q-20 -20 -48 -20t-48 20t-20 48t20 48t48 20t48 -20t20 -48t-20 -48zM164 380q-20 -20 -48 -20t-48 20t-20 48t20 48t48 20t48 -20t20 -48t-20 -48z" />
    <glyph glyph-name="semicolon" unicode=";" horiz-adv-x="232" 
d="M164 380q-20 -20 -48 -20t-48 20t-20 48t20 48t48 20t48 -20t20 -48t-20 -48zM87 -93l-43 28l58 84q-22 4 -38 20.5t-16 41.5q0 29 20 48.5t48 19.5t48 -19.5t20 -48.5t-30 -74z" />
    <glyph glyph-name="less" unicode="&#x3c;" horiz-adv-x="506" 
d="M446 52l-390 185v68l390 185v-84l-294 -133v-4l294 -133v-84z" />
    <glyph glyph-name="equal" unicode="=" horiz-adv-x="562" 
d="M56 376v76h450v-76h-450zM56 186v76h450v-76h-450z" />
    <glyph glyph-name="greater" unicode="&#x3e;" horiz-adv-x="506" 
d="M450 237l-390 -185v84l294 133v4l-294 133v84l390 -185v-68z" />
    <glyph glyph-name="question" unicode="?" horiz-adv-x="493" 
d="M287 14q-19 -20 -48 -20t-48.5 20t-19.5 48t19.5 48t48.5 20t48.5 -20t19.5 -48t-20 -48zM286 222h-94v47q0 45 19 77.5t67 76.5q27 25 38.5 37.5t23 35t11.5 46.5q0 46 -29.5 74t-81.5 28q-86 0 -118 -96l-86 36q21 57 72.5 102.5t131.5 45.5q91 0 148 -53.5t57 -136.5
q0 -36 -19 -73t-33.5 -52.5t-40.5 -39.5l-5 -5q-61 -55 -61 -110v-40z" />
    <glyph glyph-name="at" unicode="@" horiz-adv-x="868" 
d="M436 690q164 0 276 -113t112 -273q0 -90 -38.5 -149t-111.5 -59q-75 0 -112 73q-49 -73 -140 -73q-82 0 -138 57.5t-56 146.5q0 88 56 146t134 58q77 0 128 -59h4v45h72v-261q0 -26 14.5 -47t44.5 -21q71 0 71 143q0 132 -92 223t-224 91t-224 -91t-92 -223t92 -223
t224 -91q71 0 127 28l28 -68q-70 -32 -155 -32q-166 0 -279 112.5t-113 273.5q0 160 113.5 273t278.5 113zM343 207q36 -35 86 -35t85.5 35t35.5 93t-35.5 93t-85.5 35t-85.5 -35t-35.5 -93t35 -93z" />
    <glyph glyph-name="A" unicode="A" horiz-adv-x="668" 
d="M12 0l270 716h104l270 -716h-102l-69 194h-301l-70 -194h-102zM215 280h238l-117 323h-4z" />
    <glyph glyph-name="B" unicode="B" horiz-adv-x="594" 
d="M72 0v716h259q84 0 145.5 -55.5t61.5 -139.5q0 -51 -26.5 -90t-70.5 -59v-4q53 -18 87 -62t34 -102q0 -88 -64.5 -146t-152.5 -58h-273zM164 409h167q52 0 83.5 34.5t31.5 75.5t-30.5 75t-80.5 34h-171v-219zM164 88h185q53 0 86 37t33 81t-34 80.5t-89 36.5h-181v-235z
" />
    <glyph glyph-name="C" unicode="C" horiz-adv-x="729" 
d="M409 -16q-158 0 -265 107t-107 267t107 267t265 107q162 0 263 -117l-64 -62q-73 91 -199 91q-117 0 -197.5 -79t-80.5 -207t80.5 -207t197.5 -79q129 0 220 104l64 -64q-49 -59 -123 -93.5t-161 -34.5z" />
    <glyph glyph-name="D" unicode="D" horiz-adv-x="691" 
d="M72 0v716h219q165 0 264 -99.5t99 -258.5t-99 -258.5t-264 -99.5h-219zM164 88h127q124 0 196.5 71t72.5 199q0 127 -72.5 198.5t-196.5 71.5h-127v-540z" />
    <glyph glyph-name="E" unicode="E" 
d="M490 628h-326v-227h294v-86h-294v-227h326v-88h-418v716h418v-88z" />
    <glyph glyph-name="F" unicode="F" horiz-adv-x="522" 
d="M164 0h-92v716h418v-88h-326v-235h294v-86h-294v-307z" />
    <glyph glyph-name="G" unicode="G" horiz-adv-x="801" 
d="M761 329q0 -150 -89 -239q-101 -106 -263 -106q-155 0 -263.5 107.5t-108.5 266.5t108.5 266.5t263.5 107.5q77 0 147 -30t112 -80l-63 -63q-71 85 -196 85q-113 0 -195.5 -79.5t-82.5 -206.5t82.5 -206.5t195.5 -79.5q120 0 200 80q52 52 60 145h-260v86h347
q5 -28 5 -54z" />
    <glyph glyph-name="H" unicode="H" horiz-adv-x="686" 
d="M72 0v716h92v-307h358v307h92v-716h-92v323h-358v-323h-92z" />
    <glyph glyph-name="I" unicode="I" horiz-adv-x="236" 
d="M72 0v716h92v-716h-92z" />
    <glyph glyph-name="J" unicode="J" horiz-adv-x="524" 
d="M235 -16q-78 0 -133 43.5t-78 122.5l84 35q32 -113 131 -113q64 0 98.5 41.5t34.5 112.5v490h92v-488q0 -117 -64.5 -180.5t-164.5 -63.5z" />
    <glyph glyph-name="K" unicode="K" horiz-adv-x="622" 
d="M602 716v-4l-266 -307l284 -401v-4h-113l-233 334l-110 -127v-207h-92v716h92v-369h4l315 369h119z" />
    <glyph glyph-name="L" unicode="L" horiz-adv-x="498" 
d="M72 0v716h92v-628h310v-88h-402z" />
    <glyph glyph-name="M" unicode="M" horiz-adv-x="830" 
d="M72 0v716h92l249 -436h4l249 436h92v-716h-92v425l4 120h-4l-224 -393h-54l-224 393h-4l4 -120v-425h-92z" />
    <glyph glyph-name="N" unicode="N" horiz-adv-x="696" 
d="M72 0v716h112l348 -557h4l-4 138v419h92v-716h-96l-364 584h-4l4 -138v-446h-92z" />
    <glyph glyph-name="O" unicode="O" horiz-adv-x="810" 
d="M405 732q156 0 262 -109t106 -265q0 -157 -105.5 -265.5t-262.5 -108.5t-262.5 108.5t-105.5 265.5t105.5 265.5t262.5 108.5zM210 152q80 -80 195 -80t194.5 80.5t79.5 205.5t-79.5 205.5t-194.5 80.5t-194.5 -80.5t-79.5 -205.5t79 -206z" />
    <glyph glyph-name="P" unicode="P" horiz-adv-x="564" 
d="M164 0h-92v716h244q91 0 157.5 -60.5t66.5 -152.5t-66.5 -152.5t-157.5 -60.5h-152v-290zM164 378h154q58 0 93 39t35 86t-35 86t-93 39h-154v-250z" />
    <glyph glyph-name="Q" unicode="Q" horiz-adv-x="810" 
d="M626 -48l-49 73q-80 -41 -172 -41q-157 0 -262.5 108.5t-105.5 265.5t105.5 265.5t262.5 108.5q156 0 262 -109t106 -265q0 -173 -125 -284l50 -75zM405 72q62 0 121 28l-84 126l72 49l83 -125q82 80 82 208q0 125 -79.5 205.5t-194.5 80.5t-194.5 -80.5t-79.5 -205.5
t79.5 -205.5t194.5 -80.5z" />
    <glyph glyph-name="R" unicode="R" horiz-adv-x="578" 
d="M72 0v716h244q91 0 157.5 -60.5t66.5 -152.5q0 -75 -49 -132.5t-122 -72.5l-2 -3l201 -291v-4h-109l-193 290h-102v-290h-92zM164 376h148q55 0 94.5 36t39.5 91q0 47 -35 86t-93 39h-154v-252z" />
    <glyph glyph-name="S" unicode="S" horiz-adv-x="553" 
d="M274 -16q-78 0 -152.5 51t-97.5 143l84 34q15 -59 61.5 -99.5t104.5 -40.5q60 0 102.5 31.5t42.5 85.5q0 60 -42.5 92.5t-134.5 60.5q-95 30 -144 77.5t-49 121.5q0 77 61 134t159 57q91 0 148 -45.5t74 -99.5l-84 -35q-9 34 -44.5 63t-91.5 29q-53 0 -90.5 -29.5
t-37.5 -73.5q0 -40 34.5 -67.5t101.5 -49.5q53 -17 88.5 -33t72 -42.5t55 -66t18.5 -91.5t-21.5 -93t-57 -65t-76.5 -36.5t-84 -12.5z" />
    <glyph glyph-name="T" unicode="T" horiz-adv-x="540" 
d="M316 0h-92v628h-200v88h492v-88h-200v-628z" />
    <glyph glyph-name="U" unicode="U" horiz-adv-x="642" 
d="M321 -16q-118 0 -191.5 78t-73.5 204v450h92v-454q0 -85 44.5 -137.5t128.5 -52.5t128.5 52.5t44.5 137.5v454h92v-450q0 -127 -71.5 -204.5t-193.5 -77.5z" />
    <glyph glyph-name="V" unicode="V" horiz-adv-x="632" 
d="M264 0l-252 716h102l196 -581h4l204 581h102l-260 -716h-96z" />
    <glyph glyph-name="W" unicode="W" horiz-adv-x="922" 
d="M906 716l-191 -716h-94l-154 472h-4l-154 -472h-94l-199 716h96l151 -563h4l155 467h86l155 -467h4l143 563h96z" />
    <glyph glyph-name="X" unicode="X" horiz-adv-x="632" 
d="M16 0l240 370l-226 346h110l174 -274h4l174 274h110l-226 -346l240 -370h-108l-190 293h-4l-190 -293h-108z" />
    <glyph glyph-name="Y" unicode="Y" horiz-adv-x="594" 
d="M345 0h-92v333l-241 383h108l177 -291h4l173 291h108l-237 -383v-333z" />
    <glyph glyph-name="Z" unicode="Z" horiz-adv-x="564" 
d="M32 0v96l381 532h-365v88h472v-96l-381 -532h385v-88h-492z" />
    <glyph glyph-name="bracketleft" unicode="[" horiz-adv-x="308" 
d="M72 -124v916h204v-76h-120v-764h120v-76h-204z" />
    <glyph glyph-name="backslash" unicode="\" horiz-adv-x="437" 
d="M417 -16l-74 -30l-323 778l74 30z" />
    <glyph glyph-name="bracketright" unicode="]" horiz-adv-x="308" 
d="M236 792v-916h-204v76h120v764h-120v76h204z" />
    <glyph glyph-name="asciicircum" unicode="^" horiz-adv-x="470" 
d="M458 410h-96l-125 218h-4l-125 -218h-96l187 306h72z" />
    <glyph glyph-name="underscore" unicode="_" horiz-adv-x="480" 
d="M0 -216v76h480v-76h-480z" />
    <glyph glyph-name="grave" unicode="`" horiz-adv-x="400" 
d="M248 588h-80l-72 128h100z" />
    <glyph glyph-name="a" unicode="a" horiz-adv-x="512" 
d="M211 -16q-78 0 -130.5 45t-52.5 119q0 80 62 125.5t153 45.5q81 0 133 -30v14q0 54 -37 86.5t-91 32.5q-40 0 -72.5 -19t-44.5 -52l-84 36q17 44 67 81.5t132 37.5q94 0 156 -55t62 -155v-296h-88v68h-4q-55 -84 -161 -84zM226 68q57 0 103.5 42.5t46.5 100.5
q-39 32 -117 32q-67 0 -101 -29t-34 -68q0 -36 31 -57t71 -21z" />
    <glyph glyph-name="b" unicode="b" horiz-adv-x="576" 
d="M315 -16q-56 0 -100.5 24t-66.5 60h-4v-68h-88v716h92v-226l-4 -68h4q22 36 66.5 60t100.5 24q95 0 164 -75t69 -186t-69 -186t-164 -75zM300 68q64 0 110 48.5t46 128.5t-46 128.5t-110 48.5q-65 0 -110.5 -48t-45.5 -129t45.5 -129t110.5 -48z" />
    <glyph glyph-name="c" unicode="c" horiz-adv-x="522" 
d="M280 -16q-110 0 -181 74.5t-71 186.5t71 186.5t181 74.5q82 0 136 -40t79 -101l-84 -35q-38 92 -137 92q-61 0 -107.5 -50t-46.5 -127t46.5 -127t107.5 -50q103 0 142 92l82 -35q-25 -60 -80.5 -100.5t-137.5 -40.5z" />
    <glyph glyph-name="d" unicode="d" horiz-adv-x="576" 
d="M261 -16q-95 0 -164 75t-69 186t69 186t164 75q56 0 100.5 -24t66.5 -60h4l-4 68v226h92v-716h-88v68h-4q-22 -36 -66.5 -60t-100.5 -24zM276 68q65 0 110.5 48t45.5 129t-45.5 129t-110.5 48q-64 0 -110 -48.5t-46 -128.5t46 -128.5t110 -48.5z" />
    <glyph glyph-name="e" unicode="e" horiz-adv-x="536" 
d="M278 -16q-111 0 -180.5 74t-69.5 187q0 107 67.5 184t172.5 77q109 0 174.5 -71t65.5 -190l-1 -17h-387q4 -74 49.5 -117t106.5 -43q99 0 134 84l82 -34q-24 -57 -79 -95.5t-135 -38.5zM410 304q-3 42 -38.5 80t-105.5 38q-51 0 -88.5 -32t-51.5 -86h284z" />
    <glyph glyph-name="f" unicode="f" horiz-adv-x="368" 
d="M290 720q44 0 74 -13l-32 -79q-16 8 -42 8q-36 0 -59 -21.5t-23 -62.5v-62h128v-84h-128v-406h-92v406h-92v84h92v65q0 75 48 120t126 45z" />
    <glyph glyph-name="g" unicode="g" horiz-adv-x="576" 
d="M269 -232q-87 0 -142 43.5t-79 99.5l84 35q14 -40 51.5 -67t85.5 -27q76 0 119.5 45.5t43.5 123.5v47h-4q-24 -36 -68 -60t-99 -24q-95 0 -164 75t-69 186t69 186t164 75q55 0 99 -24t68 -60h4v68h88v-465q0 -126 -73 -191.5t-178 -65.5zM276 68q65 0 110.5 48t45.5 129
t-45.5 129t-110.5 48q-64 0 -110 -48.5t-46 -128.5t46 -128.5t110 -48.5z" />
    <glyph glyph-name="h" unicode="h" 
d="M148 716v-226l-4 -68h4q20 35 63 59.5t92 24.5q91 0 139 -56t48 -150v-300h-92v286q0 136 -121 136q-57 0 -93 -45.5t-36 -105.5v-271h-92v716h92z" />
    <glyph glyph-name="i" unicode="i" horiz-adv-x="220" 
d="M156 613q-19 -19 -46 -19t-46 19t-19 46t19 46t46 19t46 -19t19 -46t-19 -46zM156 0h-92v490h92v-490z" />
    <glyph glyph-name="j" unicode="j" horiz-adv-x="220" 
d="M156 613q-19 -19 -46 -19t-46 19t-19 46t19 46t46 19t46 -19t19 -46t-19 -46zM9 -226q-27 0 -54 10l24 80q13 -6 27 -6q58 0 58 76v556h92v-556q0 -81 -39 -120.5t-108 -39.5z" />
    <glyph glyph-name="k" unicode="k" horiz-adv-x="483" 
d="M148 716v-441l212 215h118v-4l-191 -191l200 -291v-4h-111l-154 231l-74 -74v-157h-92v716h92z" />
    <glyph glyph-name="l" unicode="l" horiz-adv-x="204" 
d="M148 0h-92v716h92v-716z" />
    <glyph glyph-name="m" unicode="m" horiz-adv-x="852" 
d="M56 0v490h88v-68h4q21 35 64.5 59.5t86.5 24.5q114 0 155 -94q60 94 171 94q87 0 131 -55.5t44 -150.5v-300h-92v286q0 74 -27 105t-82 31q-54 0 -89.5 -46t-35.5 -105v-271h-92v286q0 74 -27 105t-82 31q-54 0 -89.5 -46t-35.5 -105v-271h-92z" />
    <glyph glyph-name="n" unicode="n" 
d="M144 490v-68h4q20 35 63 59.5t92 24.5q91 0 139 -56t48 -150v-300h-92v286q0 136 -121 136q-57 0 -93 -45.5t-36 -105.5v-271h-92v490h88z" />
    <glyph glyph-name="o" unicode="o" horiz-adv-x="560" 
d="M99 431q71 75 181 75t181 -74.5t71 -186.5t-71 -186.5t-181 -74.5t-181 74.5t-71 186.5t71 186zM167 116q48 -48 113 -48t112.5 48.5t47.5 128.5t-47.5 128.5t-112.5 48.5t-112.5 -48.5t-47.5 -128.5t47 -129z" />
    <glyph glyph-name="p" unicode="p" horiz-adv-x="572" 
d="M311 -16q-56 0 -100.5 24t-66.5 60h-4l4 -68v-216h-92v706h88v-68h4q22 36 66.5 60t100.5 24q95 0 164 -75t69 -186t-69 -186t-164 -75zM296 68q64 0 110 48.5t46 128.5t-46 128.5t-110 48.5q-65 0 -110.5 -48t-45.5 -129t45.5 -129t110.5 -48z" />
    <glyph glyph-name="q" unicode="q" horiz-adv-x="572" 
d="M428 -216v216l4 68h-4q-22 -36 -66.5 -60t-100.5 -24q-95 0 -164 75t-69 186t69 186t164 75q56 0 100.5 -24t66.5 -60h4v68h88v-706h-92zM276 68q65 0 110.5 48t45.5 129t-45.5 129t-110.5 48q-64 0 -110 -48.5t-46 -128.5t46 -128.5t110 -48.5z" />
    <glyph glyph-name="r" unicode="r" horiz-adv-x="363" 
d="M148 0h-92v490h88v-80h4q14 40 57.5 66t84.5 26t69 -12l-35 -86q-18 7 -49 7q-50 0 -88.5 -39.5t-38.5 -103.5v-268z" />
    <glyph glyph-name="s" unicode="s" horiz-adv-x="455" 
d="M238 -16q-82 0 -135.5 40t-78.5 100l82 34q39 -92 133 -92q43 0 70.5 19t27.5 50q0 48 -67 65l-99 24q-47 12 -89 45.5t-42 90.5q0 65 57.5 105.5t136.5 40.5q65 0 116 -29.5t73 -84.5l-80 -33q-27 65 -112 65q-41 0 -69 -17t-28 -46q0 -42 65 -57l97 -23q69 -16 102 -55
t33 -88q0 -66 -54 -110t-139 -44z" />
    <glyph glyph-name="t" unicode="t" horiz-adv-x="354" 
d="M268 -8q-77 0 -117.5 41t-40.5 116v257h-86v84h86v150h92v-150h120v-84h-120v-250q0 -80 66 -80q25 0 42 8l32 -79q-30 -13 -74 -13z" />
    <glyph glyph-name="u" unicode="u" 
d="M486 0h-88v68h-4q-21 -35 -64 -59.5t-91 -24.5q-92 0 -139.5 56t-47.5 150v300h92v-285q0 -137 121 -137q57 0 93 46t36 106v270h92v-490z" />
    <glyph glyph-name="v" unicode="v" horiz-adv-x="498" 
d="M202 0l-198 490h100l144 -380h2l146 380h98l-200 -490h-92z" />
    <glyph glyph-name="w" unicode="w" horiz-adv-x="754" 
d="M592 0h-94l-122 376l-121 -376h-93l-158 490h96l109 -370h1l121 370h95l121 -370h1l108 370h94z" />
    <glyph glyph-name="x" unicode="x" horiz-adv-x="472" 
d="M464 0h-108l-121 181l-119 -181h-108l173 249l-169 241h104l121 -173l115 173h108l-171 -241z" />
    <glyph glyph-name="y" unicode="y" horiz-adv-x="498" 
d="M187 -216h-95l114 247l-202 459h100l146 -352h2l142 352h100z" />
    <glyph glyph-name="z" unicode="z" horiz-adv-x="460" 
d="M32 0v80l279 326h-271v84h384v-80l-279 -326h283v-84h-396z" />
    <glyph glyph-name="braceleft" unicode="{" horiz-adv-x="318" 
d="M264 -124q-77 0 -121.5 45t-44.5 120v171q0 41 -21 62.5t-53 21.5v76q32 0 53 21.5t21 62.5v171q0 75 44.5 120t121.5 45h22v-76h-22q-35 0 -58.5 -25t-23.5 -67v-171q0 -91 -69 -117v-4q69 -24 69 -117v-171q0 -42 23.5 -67t58.5 -25h22v-76h-22z" />
    <glyph glyph-name="bar" unicode="|" horiz-adv-x="228" 
d="M72 -120v912h84v-912h-84z" />
    <glyph glyph-name="braceright" unicode="}" horiz-adv-x="318" 
d="M54 -124h-22v76h22q35 0 58.5 25t23.5 67v171q0 93 69 117v4q-69 26 -69 117v171q0 42 -23.5 67t-58.5 25h-22v76h22q77 0 121.5 -45t44.5 -120v-171q0 -41 21 -62.5t53 -21.5v-76q-32 0 -53 -21.5t-21 -62.5v-171q0 -75 -44.5 -120t-121.5 -45z" />
    <glyph glyph-name="asciitilde" unicode="~" horiz-adv-x="530" 
d="M377 234q-33 0 -116 32.5t-106 32.5q-22 0 -35.5 -15.5t-15.5 -35.5h-72q0 60 36.5 97t84.5 37q36 0 117.5 -32.5t104.5 -32.5q22 0 35.5 15.5t15.5 35.5h72q0 -60 -36.5 -97t-84.5 -37z" />
    <glyph glyph-name="uni00A0" unicode="&#xa0;" horiz-adv-x="220" 
 />
    <glyph glyph-name="exclamdown" unicode="&#xa1;" horiz-adv-x="232" 
d="M68 486q20 20 48 20t48 -20t20 -48t-20 -48t-48 -20t-48 20t-20 48t20 48zM70 10l10 268h72l10 -268v-226h-92v226z" />
    <glyph glyph-name="cent" unicode="&#xa2;" horiz-adv-x="522" 
d="M240 0v86q-95 14 -153.5 84.5t-58.5 171.5t58.5 171.5t153.5 84.5v86h76v-86q67 -8 112 -45.5t67 -90.5l-84 -35q-29 69 -95 87v-344q70 17 100 87l82 -35q-22 -52 -68.5 -90t-113.5 -47v-85h-76zM120 342q0 -66 34.5 -113t85.5 -60v345q-51 -13 -85.5 -60t-34.5 -112z
" />
    <glyph glyph-name="sterling" unicode="&#xa3;" horiz-adv-x="519" 
d="M335 246h-115v-5q0 -88 -59 -150l3 -3h178q62 0 85 57l76 -32q-45 -113 -161 -113h-310v80q98 45 98 146q0 6 -2 20h-96v77h67l-17.5 29.5t-19.5 34.5t-14 31.5t-12.5 41.5t-3.5 42q0 81 58 139.5t148 58.5q80 0 130 -43t68 -99l-84 -35q-11 37 -39.5 63t-74.5 26
q-53 0 -83.5 -33.5t-30.5 -76.5q0 -32 11.5 -61t34 -65t30.5 -53h135v-77z" />
    <glyph glyph-name="currency" unicode="&#xa4;" horiz-adv-x="598" 
d="M172 148l-59 -57l-53 54l60 58q-37 56 -37 122q0 67 37 122l-60 59l53 54l59 -57q55 41 127 41t127 -41l59 57l53 -54l-59 -58q36 -55 36 -123q0 -67 -36 -122l59 -58l-53 -54l-59 57q-57 -42 -127 -42t-127 42zM205 226q39 -40 94 -40t93.5 40.5t38.5 98.5t-38.5 98.5
t-93.5 40.5t-93.5 -40.5t-38.5 -98.5t38 -99z" />
    <glyph glyph-name="yen" unicode="&#xa5;" horiz-adv-x="572" 
d="M501 326h-167v-84h167v-76h-167v-166h-92v166h-171v76h171v84h-171v76h122l-181 282h105l169 -282h4l165 282h105l-178 -282h119v-76z" />
    <glyph glyph-name="brokenbar" unicode="&#xa6;" horiz-adv-x="228" 
d="M156 376h-84v380h84v-380zM156 -120h-84v412h84v-412z" />
    <glyph glyph-name="section" unicode="&#xa7;" horiz-adv-x="535" 
d="M272 -232q-78 0 -143.5 49.5t-88.5 143.5l84 34q16 -61 54.5 -100t93.5 -39q53 0 91 29t38 72q0 50 -37.5 80.5t-123.5 56.5q-91 29 -134 73t-43 110q0 39 21.5 76t62.5 61q-84 52 -84 143q0 67 55.5 121t150.5 54q77 0 132 -46t72 -99l-84 -35q-9 33 -41.5 62.5
t-76.5 29.5q-50 0 -82 -26.5t-32 -60.5t28.5 -57t91.5 -44q48 -15 83 -31.5t68 -41.5t50 -61.5t17 -82.5q0 -43 -18 -79.5t-47 -58.5q65 -55 65 -142q0 -61 -34.5 -105.5t-84 -65t-104.5 -20.5zM277 176q46 -15 81 -31q19 15 31 41t12 49q0 52 -37 82t-124 57q-3 0 -4 1
q-36 -11 -57.5 -39.5t-21.5 -56.5q0 -36 28 -59t92 -44z" />
    <glyph glyph-name="dieresis" unicode="&#xa8;" horiz-adv-x="400" 
d="M284 602q-22 0 -39.5 17t-17.5 40q0 24 17 40.5t40 16.5q25 0 41 -16t16 -41q0 -23 -16.5 -40t-40.5 -17zM116 602q-22 0 -39.5 17t-17.5 40q0 24 17 40.5t40 16.5q25 0 41 -16t16 -41q0 -23 -16.5 -40t-40.5 -17z" />
    <glyph glyph-name="copyright" unicode="&#xa9;" horiz-adv-x="532" 
d="M266 732q94 0 162 -68t68 -162q0 -95 -67.5 -162.5t-162.5 -67.5t-162.5 67.5t-67.5 162.5t67.5 162.5t162.5 67.5zM266 320q75 0 128.5 53.5t53.5 128.5q0 76 -53 129t-129 53q-75 0 -128.5 -53.5t-53.5 -128.5q0 -74 54 -128t128 -54zM270 383q-50 0 -84.5 35t-34.5 84
q0 50 34 84.5t85 34.5q48 0 87 -39l-32 -29q-22 24 -55 24q-29 0 -51 -21.5t-22 -53.5q0 -31 22 -53t51 -22q36 0 60 31l34 -27q-36 -48 -94 -48z" />
    <glyph glyph-name="ordfeminine" unicode="&#xaa;" horiz-adv-x="478" 
d="M208 272q-69 0 -118.5 39t-49.5 104q0 70 57.5 110.5t138.5 40.5q70 0 118 -28v15q0 47 -33.5 73t-82.5 26q-74 0 -103 -57l-77 32q15 36 60.5 70.5t117.5 34.5q85 0 143.5 -49t58.5 -136v-261h-84v62h-4q-20 -33 -57 -54.5t-85 -21.5zM222 350q51 0 91.5 34t40.5 85
q-35 28 -103 28q-60 0 -89.5 -25t-29.5 -59q0 -32 26.5 -47.5t63.5 -15.5z" />
    <glyph glyph-name="guillemotleft" unicode="&#xab;" horiz-adv-x="556" 
d="M136 271l160 -169l-54 -50l-202 219l202 219l54 -50zM336 271l160 -169l-54 -50l-202 219l202 219l54 -50z" />
    <glyph glyph-name="logicalnot" unicode="&#xac;" horiz-adv-x="562" 
d="M48 309v76h434v-280h-72v204h-362z" />
    <glyph glyph-name="uni00AD" unicode="&#xad;" horiz-adv-x="432" 
d="M56 272v76h320v-76h-320z" />
    <glyph glyph-name="registered" unicode="&#xae;" horiz-adv-x="532" 
d="M266 732q94 0 162 -68t68 -162q0 -95 -67.5 -162.5t-162.5 -67.5t-162.5 67.5t-67.5 162.5t67.5 162.5t162.5 67.5zM266 320q75 0 128.5 53.5t53.5 128.5q0 76 -53 129t-129 53q-75 0 -128.5 -53.5t-53.5 -128.5q0 -74 54 -128t128 -54zM235 389h-46v226h96q29 0 51 -21
t22 -51q0 -23 -14.5 -41.5t-35.5 -24.5l-2 -2l60 -84v-2h-52l-55 84h-24v-84zM281 515q13 0 22 8t9 20q0 11 -8.5 19.5t-21.5 8.5h-47v-56h46z" />
    <glyph glyph-name="macron" unicode="&#xaf;" horiz-adv-x="400" 
d="M340 623h-280v72h280v-72z" />
    <glyph glyph-name="degree" unicode="&#xb0;" horiz-adv-x="325" 
d="M163 442q-54 0 -92.5 38t-38.5 91q0 54 38.5 91.5t92.5 37.5t92 -37.5t38 -91.5q0 -53 -38.5 -91t-91.5 -38zM163 506q25 0 43.5 19.5t18.5 45.5q0 27 -18 46t-44 19t-44.5 -19t-18.5 -46q0 -26 18.5 -45.5t44.5 -19.5z" />
    <glyph glyph-name="plusminus" unicode="&#xb1;" horiz-adv-x="550" 
d="M313 529v-157h181v-76h-181v-157h-76v157h-181v76h181v157h76zM494 0h-438v76h438v-76z" />
    <glyph glyph-name="twosuperior" unicode="&#xb2;" horiz-adv-x="304" 
d="M276 350h-250v60l134 135q42 42 42 71q0 19 -15 31.5t-37 12.5q-49 0 -61 -58l-65 27q9 44 44.5 69.5t80.5 25.5q50 0 87.5 -30t37.5 -78q0 -47 -64 -111l-92 -91h158v-64z" />
    <glyph glyph-name="threesuperior" unicode="&#xb3;" horiz-adv-x="323" 
d="M158 342q-49 0 -85.5 25.5t-48.5 74.5l65 24q15 -60 69 -60q24 0 42.5 15t18.5 39q0 23 -17 36.5t-43 13.5h-41v60h37q23 0 37.5 13t14.5 34q0 19 -15 31t-35 12q-42 0 -58 -43l-62 25q29 82 120 82q54 0 88 -29.5t34 -76.5q0 -46 -45 -75q57 -33 57 -84q0 -53 -39 -85
t-94 -32z" />
    <glyph glyph-name="acute" unicode="&#xb4;" horiz-adv-x="400" 
d="M232 588h-80l52 128h100z" />
    <glyph glyph-name="mu" unicode="&#xb5;" 
d="M486 0h-88v68h-4q-50 -84 -151 -84q-52 0 -99 40h-4l4 -56v-184h-92v706h92v-285q0 -137 121 -137q57 0 93 46t36 106v270h92v-490z" />
    <glyph glyph-name="paragraph" unicode="&#xb6;" horiz-adv-x="624" 
d="M376 -216h-84v512h-44q-93 0 -158.5 57.5t-65.5 152.5t65.5 152.5t158.5 57.5h296v-932h-84v844h-84v-844z" />
    <glyph glyph-name="periodcentered" unicode="&#xb7;" horiz-adv-x="176" 
d="M136 276q-20 -20 -48 -20t-48 20t-20 48t20 48t48 20t48 -20t20 -48t-20 -48z" />
    <glyph glyph-name="cedilla" unicode="&#xb8;" horiz-adv-x="400" 
d="M165 -237q-32 0 -57.5 19t-36.5 48l52 23q11 -34 42 -34q18 0 29.5 12t11.5 28q0 17 -11.5 29.5t-29.5 12.5q-20 0 -33 -16l-47 22l35 93h56l-21 -48q10 2 20 2q38 0 64.5 -27t26.5 -68q0 -40 -29 -68t-72 -28z" />
    <glyph glyph-name="onesuperior" unicode="&#xb9;" horiz-adv-x="242" 
d="M182 350h-70v285l-64 -26l-24 54l112 53h46v-366z" />
    <glyph glyph-name="ordmasculine" unicode="&#xba;" horiz-adv-x="516" 
d="M258 272q-97 0 -159.5 65.5t-62.5 164.5t62.5 164.5t159.5 65.5q96 0 159 -65.5t63 -164.5t-63 -164.5t-159 -65.5zM258 352q53 0 93.5 42.5t40.5 107.5t-40.5 107.5t-93.5 42.5q-54 0 -94 -42.5t-40 -107.5t40 -107.5t94 -42.5z" />
    <glyph glyph-name="guillemotright" unicode="&#xbb;" horiz-adv-x="556" 
d="M60 102l160 169l-160 169l54 50l202 -219l-202 -219zM260 102l160 169l-160 169l54 50l202 -219l-202 -219z" />
    <glyph glyph-name="onequarter" unicode="&#xbc;" horiz-adv-x="736" 
d="M632 0h-70v72h-171v48l174 246h67v-234h48v-60h-48v-72zM157 -8l-57 37l466 695l56 -38zM206 350h-70v285l-64 -26l-24 54l112 53h46v-366zM464 132h98v131h-4z" />
    <glyph glyph-name="onehalf" unicode="&#xbd;" horiz-adv-x="776" 
d="M149 -8l-57 37l466 695l56 -38zM720 0h-250v60l134 135q42 42 42 71q0 19 -15 31.5t-37 12.5q-49 0 -61 -58l-65 27q9 44 44.5 69.5t80.5 25.5q50 0 87.5 -30t37.5 -78q0 -47 -64 -111l-92 -91h158v-64zM206 350h-70v285l-64 -26l-24 54l112 53h46v-366z" />
    <glyph glyph-name="threequarters" unicode="&#xbe;" horiz-adv-x="829" 
d="M723 0h-70v72h-171v48l174 246h67v-234h48v-60h-48v-72zM236 -8l-57 37l466 695l56 -38zM182 342q-49 0 -85.5 25.5t-48.5 74.5l65 24q15 -60 69 -60q24 0 42.5 15t18.5 39q0 23 -17 36.5t-43 13.5h-41v60h37q23 0 37.5 13t14.5 34q0 19 -15 31t-35 12q-42 0 -58 -43
l-62 25q29 82 120 82q54 0 88 -29.5t34 -76.5q0 -46 -45 -75q57 -33 57 -84q0 -53 -39 -85t-94 -32zM555 132h98v131h-4z" />
    <glyph glyph-name="questiondown" unicode="&#xbf;" horiz-adv-x="482" 
d="M194 486q20 20 49 20t48.5 -20t19.5 -48t-19.5 -48t-48.5 -20t-48.5 20t-19.5 48t19 48zM196 278h94v-47q0 -45 -19 -77.5t-67 -76.5q-27 -25 -38.5 -37.5t-23 -35t-11.5 -46.5q0 -46 29.5 -74t81.5 -28q86 0 118 96l86 -36q-21 -57 -72.5 -102.5t-131.5 -45.5
q-91 0 -148 53.5t-57 136.5q0 36 19 73t33.5 52.5t40.5 39.5l5 5q61 55 61 110v40z" />
    <glyph glyph-name="Agrave" unicode="&#xc0;" horiz-adv-x="668" 
d="M12 0l270 716h104l270 -716h-102l-69 194h-301l-70 -194h-102zM215 280h238l-117 323h-4zM372 772h-80l-72 128h100z" />
    <glyph glyph-name="Aacute" unicode="&#xc1;" horiz-adv-x="668" 
d="M12 0l270 716h104l270 -716h-102l-69 194h-301l-70 -194h-102zM215 280h238l-117 323h-4zM376 772h-80l52 128h100z" />
    <glyph glyph-name="Acircumflex" unicode="&#xc2;" horiz-adv-x="668" 
d="M12 0l270 716h104l270 -716h-102l-69 194h-301l-70 -194h-102zM215 280h238l-117 323h-4zM191 778v5l103 117h80l103 -117v-5h-89l-50 60h-8l-50 -60h-89z" />
    <glyph glyph-name="Atilde" unicode="&#xc3;" horiz-adv-x="668" 
d="M12 0l270 716h104l270 -716h-102l-69 194h-301l-70 -194h-102zM215 280h238l-117 323h-4zM394 778q-26 0 -67.5 22.5t-48.5 22.5q-30 0 -33 -35h-76q0 58 34.5 88t76.5 30q26 0 68 -22.5t48 -22.5q30 0 33 35h76q0 -58 -34.5 -88t-76.5 -30z" />
    <glyph glyph-name="Adieresis" unicode="&#xc4;" horiz-adv-x="668" 
d="M12 0l270 716h104l270 -716h-102l-69 194h-301l-70 -194h-102zM215 280h238l-117 323h-4zM418 786q-22 0 -39.5 17t-17.5 40q0 24 17 40.5t40 16.5q25 0 41 -16t16 -41q0 -23 -16.5 -40t-40.5 -17zM250 786q-22 0 -39.5 17t-17.5 40q0 24 17 40.5t40 16.5q25 0 41 -16
t16 -41q0 -23 -16.5 -40t-40.5 -17z" />
    <glyph glyph-name="Aring" unicode="&#xc5;" horiz-adv-x="668" 
d="M12 0l255 676q-37 31 -37 80q0 44 30 74t74 30q43 0 73.5 -30.5t30.5 -73.5q0 -48 -37 -80l255 -676h-102l-69 194h-301l-70 -194h-102zM215 280h238l-117 323h-4zM334 716q16 0 28 12t12 28t-12 28t-28 12t-28 -12t-12 -28t10.5 -27.5t25.5 -12.5h4z" />
    <glyph glyph-name="AE" unicode="&#xc6;" horiz-adv-x="960" 
d="M114 0h-110l432 716h472v-88h-326v-227h294v-86h-294v-227h326v-88h-418v194h-261zM486 628l-206 -348h210v348h-4z" />
    <glyph glyph-name="Ccedilla" unicode="&#xc7;" horiz-adv-x="729" 
d="M414 -237q-32 0 -57.5 19t-36.5 48l52 23q11 -34 42 -34q18 0 29.5 12t11.5 28q0 17 -11.5 29.5t-29.5 12.5q-20 0 -33 -16l-47 22l30 80q-142 15 -234.5 119t-92.5 252q0 160 107 267t265 107q162 0 263 -117l-64 -62q-73 91 -199 91q-117 0 -197.5 -79t-80.5 -207
t80.5 -207t197.5 -79q129 0 220 104l64 -64q-48 -57 -119.5 -91.5t-155.5 -36.5l-14 -32q10 2 20 2q38 0 64.5 -27t26.5 -68q0 -40 -29 -68t-72 -28z" />
    <glyph glyph-name="Egrave" unicode="&#xc8;" 
d="M490 628h-326v-227h294v-86h-294v-227h326v-88h-418v716h418v-88zM329 772h-80l-72 128h100z" />
    <glyph glyph-name="Eacute" unicode="&#xc9;" 
d="M490 628h-326v-227h294v-86h-294v-227h326v-88h-418v716h418v-88zM315 772h-80l52 128h100z" />
    <glyph glyph-name="Ecircumflex" unicode="&#xca;" 
d="M490 628h-326v-227h294v-86h-294v-227h326v-88h-418v716h418v-88zM138 778v5l103 117h80l103 -117v-5h-89l-50 60h-8l-50 -60h-89z" />
    <glyph glyph-name="Edieresis" unicode="&#xcb;" 
d="M490 628h-326v-227h294v-86h-294v-227h326v-88h-418v716h418v-88zM361 786q-23 0 -40 17t-17 40q0 24 17 40.5t40 16.5q25 0 41 -16t16 -41q0 -23 -16.5 -40t-40.5 -17zM193 786q-23 0 -40 17t-17 40q0 24 17 40.5t40 16.5q25 0 41 -16t16 -41q0 -23 -16.5 -40t-40.5 -17
z" />
    <glyph glyph-name="Igrave" unicode="&#xcc;" horiz-adv-x="236" 
d="M72 0v716h92v-716h-92zM158 772h-80l-72 128h100z" />
    <glyph glyph-name="Iacute" unicode="&#xcd;" horiz-adv-x="236" 
d="M72 0v716h92v-716h-92zM158 772h-80l52 128h100z" />
    <glyph glyph-name="Icircumflex" unicode="&#xce;" horiz-adv-x="236" 
d="M72 0v716h92v-716h-92zM-25 778v5l103 117h80l103 -117v-5h-89l-50 60h-8l-50 -60h-89z" />
    <glyph glyph-name="Idieresis" unicode="&#xcf;" horiz-adv-x="236" 
d="M50 787q-22 0 -39.5 17.5t-17.5 39.5q0 24 17 40.5t40 16.5q25 0 41 -16t16 -41q0 -23 -16.5 -40t-40.5 -17zM186 787q-22 0 -39.5 17.5t-17.5 39.5q0 24 17 40.5t40 16.5q25 0 41 -16t16 -41q0 -23 -16.5 -40t-40.5 -17zM72 0v716h92v-716h-92z" />
    <glyph glyph-name="Eth" unicode="&#xd0;" horiz-adv-x="751" 
d="M132 0v319h-76v76h76v321h219q165 0 264 -99.5t99 -258.5t-99 -258.5t-264 -99.5h-219zM224 88h127q124 0 196.5 71t72.5 199q0 127 -72.5 198.5t-196.5 71.5h-127v-233h200v-76h-200v-231z" />
    <glyph glyph-name="Ntilde" unicode="&#xd1;" horiz-adv-x="696" 
d="M72 0v716h112l348 -557h4l-4 138v419h92v-716h-96l-364 584h-4l4 -138v-446h-92zM413 778q-26 0 -67.5 22.5t-48.5 22.5q-30 0 -33 -35h-76q0 58 34.5 88t76.5 30q26 0 68 -22.5t48 -22.5q30 0 33 35h76q0 -58 -34.5 -88t-76.5 -30z" />
    <glyph glyph-name="Ograve" unicode="&#xd2;" horiz-adv-x="810" 
d="M405 732q156 0 262 -109t106 -265q0 -157 -105.5 -265.5t-262.5 -108.5t-262.5 108.5t-105.5 265.5t105.5 265.5t262.5 108.5zM210 152q80 -80 195 -80t194.5 80.5t79.5 205.5t-79.5 205.5t-194.5 80.5t-194.5 -80.5t-79.5 -205.5t79 -206zM445 772h-80l-72 128h100z" />
    <glyph glyph-name="Oacute" unicode="&#xd3;" horiz-adv-x="810" 
d="M405 732q156 0 262 -109t106 -265q0 -157 -105.5 -265.5t-262.5 -108.5t-262.5 108.5t-105.5 265.5t105.5 265.5t262.5 108.5zM210 152q80 -80 195 -80t194.5 80.5t79.5 205.5t-79.5 205.5t-194.5 80.5t-194.5 -80.5t-79.5 -205.5t79 -206zM445 772h-80l52 128h100z" />
    <glyph glyph-name="Ocircumflex" unicode="&#xd4;" horiz-adv-x="810" 
d="M405 732q156 0 262 -109t106 -265q0 -157 -105.5 -265.5t-262.5 -108.5t-262.5 108.5t-105.5 265.5t105.5 265.5t262.5 108.5zM210 152q80 -80 195 -80t194.5 80.5t79.5 205.5t-79.5 205.5t-194.5 80.5t-194.5 -80.5t-79.5 -205.5t79 -206zM262 779v5l103 117h80
l103 -117v-5h-89l-50 60h-8l-50 -60h-89z" />
    <glyph glyph-name="Otilde" unicode="&#xd5;" horiz-adv-x="810" 
d="M405 732q156 0 262 -109t106 -265q0 -157 -105.5 -265.5t-262.5 -108.5t-262.5 108.5t-105.5 265.5t105.5 265.5t262.5 108.5zM210 152q80 -80 195 -80t194.5 80.5t79.5 205.5t-79.5 205.5t-194.5 80.5t-194.5 -80.5t-79.5 -205.5t79 -206zM462 778q-26 0 -67.5 22.5
t-48.5 22.5q-30 0 -33 -35h-76q0 58 34.5 88t76.5 30q26 0 68 -22.5t48 -22.5q30 0 33 35h76q0 -58 -34.5 -88t-76.5 -30z" />
    <glyph glyph-name="Odieresis" unicode="&#xd6;" horiz-adv-x="810" 
d="M405 732q156 0 262 -109t106 -265q0 -157 -105.5 -265.5t-262.5 -108.5t-262.5 108.5t-105.5 265.5t105.5 265.5t262.5 108.5zM210 152q80 -80 195 -80t194.5 80.5t79.5 205.5t-79.5 205.5t-194.5 80.5t-194.5 -80.5t-79.5 -205.5t79 -206zM489 786q-23 0 -40 17t-17 40
q0 24 17 40.5t40 16.5q25 0 41 -16t16 -41q0 -23 -16.5 -40t-40.5 -17zM321 786q-23 0 -40 17t-17 40q0 24 17 40.5t40 16.5q25 0 41 -16t16 -41q0 -23 -16.5 -40t-40.5 -17z" />
    <glyph glyph-name="multiply" unicode="&#xd7;" 
d="M60 116l159 155l-159 155l51 51l160 -156l160 156l51 -51l-160 -155l160 -155l-51 -51l-160 156l-160 -156z" />
    <glyph glyph-name="Oslash" unicode="&#xd8;" horiz-adv-x="810" 
d="M203 -37l-63 39l37 59q-66 52 -103 129t-37 168q0 157 105.5 265.5t262.5 108.5q88 0 166 -39l38 61l62 -40l-38 -60q66 -53 103 -130t37 -166q0 -157 -105.5 -265.5t-262.5 -108.5q-88 0 -166 38zM131 358q0 -137 94 -220l299 479q-57 27 -119 27q-115 0 -194.5 -80.5
t-79.5 -205.5zM405 72q115 0 194.5 80.5t79.5 205.5q0 135 -94 219l-298 -479q55 -26 118 -26z" />
    <glyph glyph-name="Ugrave" unicode="&#xd9;" horiz-adv-x="642" 
d="M321 -16q-118 0 -191.5 78t-73.5 204v450h92v-454q0 -85 44.5 -137.5t128.5 -52.5t128.5 52.5t44.5 137.5v454h92v-450q0 -127 -71.5 -204.5t-193.5 -77.5zM367 772h-80l-72 128h100z" />
    <glyph glyph-name="Uacute" unicode="&#xda;" horiz-adv-x="642" 
d="M321 -16q-118 0 -191.5 78t-73.5 204v450h92v-454q0 -85 44.5 -137.5t128.5 -52.5t128.5 52.5t44.5 137.5v454h92v-450q0 -127 -71.5 -204.5t-193.5 -77.5zM355 772h-80l52 128h100z" />
    <glyph glyph-name="Ucircumflex" unicode="&#xdb;" horiz-adv-x="642" 
d="M321 -16q-118 0 -191.5 78t-73.5 204v450h92v-454q0 -85 44.5 -137.5t128.5 -52.5t128.5 52.5t44.5 137.5v454h92v-450q0 -127 -71.5 -204.5t-193.5 -77.5zM178 778v5l103 117h80l103 -117v-5h-89l-50 60h-8l-50 -60h-89z" />
    <glyph glyph-name="Udieresis" unicode="&#xdc;" horiz-adv-x="642" 
d="M321 -16q-118 0 -191.5 78t-73.5 204v450h92v-454q0 -85 44.5 -137.5t128.5 -52.5t128.5 52.5t44.5 137.5v454h92v-450q0 -127 -71.5 -204.5t-193.5 -77.5zM405 786q-23 0 -40 17t-17 40q0 24 17 40.5t40 16.5q25 0 41 -16t16 -41q0 -23 -16.5 -40t-40.5 -17zM237 786
q-23 0 -40 17t-17 40q0 24 17 40.5t40 16.5q25 0 41 -16t16 -41q0 -23 -16.5 -40t-40.5 -17z" />
    <glyph glyph-name="Yacute" unicode="&#xdd;" horiz-adv-x="594" 
d="M345 0h-92v333l-241 383h108l177 -291h4l173 291h108l-237 -383v-333zM331 772h-80l52 128h100z" />
    <glyph glyph-name="Thorn" unicode="&#xde;" horiz-adv-x="564" 
d="M164 0h-92v716h92v-122h152q91 0 157.5 -60.5t66.5 -152.5t-66.5 -152.5t-157.5 -60.5h-152v-168zM318 506h-154v-250h154q58 0 93 39t35 86t-35 86t-93 39z" />
    <glyph glyph-name="germandbls" unicode="&#xdf;" horiz-adv-x="562" 
d="M412 385q52 -22 85 -66t33 -108q0 -95 -66.5 -157t-166.5 -62q-22 0 -49 4v88q27 -4 49 -4q57 0 98 38t41 93q0 54 -43 91.5t-100 37.5h-37v86h25q58 0 90.5 30.5t32.5 81.5q0 47 -34 76.5t-83 29.5q-57 0 -89 -39.5t-32 -98.5v-506h-94v506q0 96 57.5 161t157.5 65
q91 0 151 -55t60 -139q0 -104 -86 -149v-4z" />
    <glyph glyph-name="agrave" unicode="&#xe0;" horiz-adv-x="512" 
d="M211 -16q-78 0 -130.5 45t-52.5 119q0 80 62 125.5t153 45.5q81 0 133 -30v14q0 54 -37 86.5t-91 32.5q-40 0 -72.5 -19t-44.5 -52l-84 36q17 44 67 81.5t132 37.5q94 0 156 -55t62 -155v-296h-88v68h-4q-55 -84 -161 -84zM226 68q57 0 103.5 42.5t46.5 100.5
q-39 32 -117 32q-67 0 -101 -29t-34 -68q0 -36 31 -57t71 -21zM304 588h-80l-72 128h100z" />
    <glyph glyph-name="aacute" unicode="&#xe1;" horiz-adv-x="512" 
d="M211 -16q-78 0 -130.5 45t-52.5 119q0 80 62 125.5t153 45.5q81 0 133 -30v14q0 54 -37 86.5t-91 32.5q-40 0 -72.5 -19t-44.5 -52l-84 36q17 44 67 81.5t132 37.5q94 0 156 -55t62 -155v-296h-88v68h-4q-55 -84 -161 -84zM226 68q57 0 103.5 42.5t46.5 100.5
q-39 32 -117 32q-67 0 -101 -29t-34 -68q0 -36 31 -57t71 -21zM285 588h-80l52 128h100z" />
    <glyph glyph-name="acircumflex" unicode="&#xe2;" horiz-adv-x="512" 
d="M211 -16q-78 0 -130.5 45t-52.5 119q0 80 62 125.5t153 45.5q81 0 133 -30v14q0 54 -37 86.5t-91 32.5q-40 0 -72.5 -19t-44.5 -52l-84 36q17 44 67 81.5t132 37.5q94 0 156 -55t62 -155v-296h-88v68h-4q-55 -84 -161 -84zM226 68q57 0 103.5 42.5t46.5 100.5
q-39 32 -117 32q-67 0 -101 -29t-34 -68q0 -36 31 -57t71 -21zM105 594v5l103 117h80l103 -117v-5h-89l-50 60h-8l-50 -60h-89z" />
    <glyph glyph-name="atilde" unicode="&#xe3;" horiz-adv-x="512" 
d="M211 -16q-78 0 -130.5 45t-52.5 119q0 80 62 125.5t153 45.5q81 0 133 -30v14q0 54 -37 86.5t-91 32.5q-40 0 -72.5 -19t-44.5 -52l-84 36q17 44 67 81.5t132 37.5q94 0 156 -55t62 -155v-296h-88v68h-4q-55 -84 -161 -84zM226 68q57 0 103.5 42.5t46.5 100.5
q-39 32 -117 32q-67 0 -101 -29t-34 -68q0 -36 31 -57t71 -21zM316 595q-26 0 -67.5 22.5t-48.5 22.5q-30 0 -33 -35h-76q0 58 34.5 88t76.5 30q26 0 68 -22.5t48 -22.5q30 0 33 35h76q0 -58 -34.5 -88t-76.5 -30z" />
    <glyph glyph-name="adieresis" unicode="&#xe4;" horiz-adv-x="512" 
d="M211 -16q-78 0 -130.5 45t-52.5 119q0 80 62 125.5t153 45.5q81 0 133 -30v14q0 54 -37 86.5t-91 32.5q-40 0 -72.5 -19t-44.5 -52l-84 36q17 44 67 81.5t132 37.5q94 0 156 -55t62 -155v-296h-88v68h-4q-55 -84 -161 -84zM226 68q57 0 103.5 42.5t46.5 100.5
q-39 32 -117 32q-67 0 -101 -29t-34 -68q0 -36 31 -57t71 -21zM340 601q-22 0 -39.5 17.5t-17.5 39.5q0 24 17 40.5t40 16.5q25 0 41 -16t16 -41q0 -23 -16.5 -40t-40.5 -17zM172 601q-22 0 -39.5 17.5t-17.5 39.5q0 24 17 40.5t40 16.5q25 0 41 -16t16 -41q0 -23 -16.5 -40
t-40.5 -17z" />
    <glyph glyph-name="aring" unicode="&#xe5;" horiz-adv-x="512" 
d="M211 -16q-78 0 -130.5 45t-52.5 119q0 80 62 125.5t153 45.5q81 0 133 -30v14q0 54 -37 86.5t-91 32.5q-40 0 -72.5 -19t-44.5 -52l-84 36q17 44 67 81.5t132 37.5q94 0 156 -55t62 -155v-296h-88v68h-4q-55 -84 -161 -84zM226 68q57 0 103.5 42.5t46.5 100.5
q-39 32 -117 32q-67 0 -101 -29t-34 -68q0 -36 31 -57t71 -21zM153 668q0 44 30.5 74t73.5 30t73.5 -30.5t30.5 -73.5t-30.5 -73.5t-73.5 -30.5t-73.5 30.5t-30.5 73.5zM226 636q13 -13 31 -13t31 13.5t13 31.5t-13 31t-31 13t-31 -13t-13 -31t13 -32z" />
    <glyph glyph-name="ae" unicode="&#xe6;" horiz-adv-x="886" 
d="M217 -16q-79 0 -134 45t-55 119q0 80 63 124.5t154 44.5q81 0 133 -30v16q0 53 -39.5 86t-93.5 33q-82 0 -116 -69l-84 35q17 42 67 80t131 38q60 0 110.5 -26t79.5 -74q68 100 185 100q109 0 174.5 -71t65.5 -190l-1 -17h-387q4 -74 49.5 -117t106.5 -43q99 0 134 84
l82 -34q-24 -57 -79 -95.5t-135 -38.5q-139 0 -205 112q-68 -112 -206 -112zM232 68q56 0 101 41.5t45 99.5q-39 32 -117 32q-67 0 -102 -28.5t-35 -66.5q0 -37 32.5 -57.5t75.5 -20.5zM760 304q-3 42 -38.5 80t-105.5 38q-51 0 -88.5 -32t-51.5 -86h284z" />
    <glyph glyph-name="ccedilla" unicode="&#xe7;" horiz-adv-x="522" 
d="M283 -237q-32 0 -57.5 19t-36.5 48l52 23q11 -34 42 -34q18 0 29.5 12t11.5 28q0 17 -11.5 29.5t-29.5 12.5q-20 0 -33 -16l-47 22l30 81q-92 16 -148.5 87t-56.5 170q0 112 71 186.5t181 74.5q82 0 136 -40t79 -101l-84 -35q-38 92 -137 92q-61 0 -107.5 -50t-46.5 -127
t46.5 -127t107.5 -50q103 0 142 92l82 -35q-25 -59 -78.5 -99t-132.5 -42l-14 -32q10 2 20 2q38 0 64.5 -27t26.5 -68q0 -40 -29 -68t-72 -28z" />
    <glyph glyph-name="egrave" unicode="&#xe8;" horiz-adv-x="536" 
d="M278 -16q-111 0 -180.5 74t-69.5 187q0 107 67.5 184t172.5 77q109 0 174.5 -71t65.5 -190l-1 -17h-387q4 -74 49.5 -117t106.5 -43q99 0 134 84l82 -34q-24 -57 -79 -95.5t-135 -38.5zM410 304q-3 42 -38.5 80t-105.5 38q-51 0 -88.5 -32t-51.5 -86h284zM311 588h-80
l-72 128h100z" />
    <glyph glyph-name="eacute" unicode="&#xe9;" horiz-adv-x="536" 
d="M278 -16q-111 0 -180.5 74t-69.5 187q0 107 67.5 184t172.5 77q109 0 174.5 -71t65.5 -190l-1 -17h-387q4 -74 49.5 -117t106.5 -43q99 0 134 84l82 -34q-24 -57 -79 -95.5t-135 -38.5zM410 304q-3 42 -38.5 80t-105.5 38q-51 0 -88.5 -32t-51.5 -86h284zM300 588h-80
l52 128h100z" />
    <glyph glyph-name="ecircumflex" unicode="&#xea;" horiz-adv-x="536" 
d="M278 -16q-111 0 -180.5 74t-69.5 187q0 107 67.5 184t172.5 77q109 0 174.5 -71t65.5 -190l-1 -17h-387q4 -74 49.5 -117t106.5 -43q99 0 134 84l82 -34q-24 -57 -79 -95.5t-135 -38.5zM410 304q-3 42 -38.5 80t-105.5 38q-51 0 -88.5 -32t-51.5 -86h284zM128 584v5
l103 117h80l103 -117v-5h-89l-50 60h-8l-50 -60h-89z" />
    <glyph glyph-name="edieresis" unicode="&#xeb;" horiz-adv-x="536" 
d="M278 -16q-111 0 -180.5 74t-69.5 187q0 107 67.5 184t172.5 77q109 0 174.5 -71t65.5 -190l-1 -17h-387q4 -74 49.5 -117t106.5 -43q99 0 134 84l82 -34q-24 -57 -79 -95.5t-135 -38.5zM410 304q-3 42 -38.5 80t-105.5 38q-51 0 -88.5 -32t-51.5 -86h284zM350 601
q-22 0 -39.5 17.5t-17.5 39.5q0 24 17 40.5t40 16.5q25 0 41 -16t16 -41q0 -23 -16.5 -40t-40.5 -17zM182 601q-22 0 -39.5 17.5t-17.5 39.5q0 24 17 40.5t40 16.5q25 0 41 -16t16 -41q0 -23 -16.5 -40t-40.5 -17z" />
    <glyph glyph-name="igrave" unicode="&#xec;" horiz-adv-x="220" 
d="M156 0h-92v490h92v-490zM152 588h-80l-72 128h100z" />
    <glyph glyph-name="iacute" unicode="&#xed;" horiz-adv-x="220" 
d="M156 0h-92v490h92v-490zM148 588h-80l52 128h100z" />
    <glyph glyph-name="icircumflex" unicode="&#xee;" horiz-adv-x="220" 
d="M156 0h-92v490h92v-490zM-33 594v5l103 117h80l103 -117v-5h-89l-50 60h-8l-50 -60h-89z" />
    <glyph glyph-name="idieresis" unicode="&#xef;" horiz-adv-x="220" 
d="M42 602q-22 0 -39.5 17t-17.5 40q0 24 17 40.5t40 16.5q25 0 41 -16t16 -41q0 -23 -16.5 -40t-40.5 -17zM178 602q-22 0 -39.5 17t-17.5 40q0 24 17 40.5t40 16.5q25 0 41 -16t16 -41q0 -23 -16.5 -40t-40.5 -17zM156 0h-92v490h92v-490z" />
    <glyph glyph-name="eth" unicode="&#xf0;" horiz-adv-x="571" 
d="M132 647l31 77q97 -27 170 -77l102 45l28 -66l-67 -30q135 -132 135 -336q0 -123 -67.5 -199.5t-178.5 -76.5q-101 0 -173 72t-72 176q0 106 71 174t167 68q83 0 126 -47l4 3q-33 77 -95 129l-129 -57l-28 67l86 38q-50 26 -110 40zM285 72q63 0 107.5 44.5t44.5 114.5
q0 69 -44 113.5t-106 44.5q-64 0 -108.5 -44.5t-44.5 -113.5q0 -70 44.5 -114.5t106.5 -44.5z" />
    <glyph glyph-name="ntilde" unicode="&#xf1;" 
d="M144 490v-68h4q20 35 63 59.5t92 24.5q91 0 139 -56t48 -150v-300h-92v286q0 136 -121 136q-57 0 -93 -45.5t-36 -105.5v-271h-92v490h88zM336 595q-26 0 -67.5 22.5t-48.5 22.5q-30 0 -33 -35h-76q0 58 34.5 88t76.5 30q26 0 68 -22.5t48 -22.5q30 0 33 35h76
q0 -58 -34.5 -88t-76.5 -30z" />
    <glyph glyph-name="ograve" unicode="&#xf2;" horiz-adv-x="560" 
d="M99 431q71 75 181 75t181 -74.5t71 -186.5t-71 -186.5t-181 -74.5t-181 74.5t-71 186.5t71 186zM167 116q48 -48 113 -48t112.5 48.5t47.5 128.5t-47.5 128.5t-112.5 48.5t-112.5 -48.5t-47.5 -128.5t47 -129zM315 588h-80l-72 128h100z" />
    <glyph glyph-name="oacute" unicode="&#xf3;" horiz-adv-x="560" 
d="M99 431q71 75 181 75t181 -74.5t71 -186.5t-71 -186.5t-181 -74.5t-181 74.5t-71 186.5t71 186zM167 116q48 -48 113 -48t112.5 48.5t47.5 128.5t-47.5 128.5t-112.5 48.5t-112.5 -48.5t-47.5 -128.5t47 -129zM316 588h-80l52 128h100z" />
    <glyph glyph-name="ocircumflex" unicode="&#xf4;" horiz-adv-x="560" 
d="M99 431q71 75 181 75t181 -74.5t71 -186.5t-71 -186.5t-181 -74.5t-181 74.5t-71 186.5t71 186zM167 116q48 -48 113 -48t112.5 48.5t47.5 128.5t-47.5 128.5t-112.5 48.5t-112.5 -48.5t-47.5 -128.5t47 -129zM137 594v5l103 117h80l103 -117v-5h-89l-50 60h-8l-50 -60
h-89z" />
    <glyph glyph-name="otilde" unicode="&#xf5;" horiz-adv-x="560" 
d="M99 431q71 75 181 75t181 -74.5t71 -186.5t-71 -186.5t-181 -74.5t-181 74.5t-71 186.5t71 186zM167 116q48 -48 113 -48t112.5 48.5t47.5 128.5t-47.5 128.5t-112.5 48.5t-112.5 -48.5t-47.5 -128.5t47 -129zM337 595q-26 0 -67.5 22.5t-48.5 22.5q-30 0 -33 -35h-76
q0 58 34.5 88t76.5 30q26 0 68 -22.5t48 -22.5q30 0 33 35h76q0 -58 -34.5 -88t-76.5 -30z" />
    <glyph glyph-name="odieresis" unicode="&#xf6;" horiz-adv-x="560" 
d="M99 431q71 75 181 75t181 -74.5t71 -186.5t-71 -186.5t-181 -74.5t-181 74.5t-71 186.5t71 186zM167 116q48 -48 113 -48t112.5 48.5t47.5 128.5t-47.5 128.5t-112.5 48.5t-112.5 -48.5t-47.5 -128.5t47 -129zM364 601q-22 0 -39.5 17.5t-17.5 39.5q0 24 17 40.5t40 16.5
q25 0 41 -16t16 -41q0 -23 -16.5 -40t-40.5 -17zM196 601q-22 0 -39.5 17.5t-17.5 39.5q0 24 17 40.5t40 16.5q25 0 41 -16t16 -41q0 -23 -16.5 -40t-40.5 -17z" />
    <glyph glyph-name="divide" unicode="&#xf7;" horiz-adv-x="550" 
d="M494 233h-438v76h438v-76zM323 40q-19 -20 -48 -20t-48.5 20t-19.5 48t19.5 48t48.5 20t48.5 -20t19.5 -48t-20 -48zM323 406q-19 -20 -48 -20t-48.5 20t-19.5 48t19.5 48t48.5 20t48.5 -20t19.5 -48t-20 -48z" />
    <glyph glyph-name="oslash" unicode="&#xf8;" horiz-adv-x="560" 
d="M280 506q57 0 110 -24l26 42l58 -34l-28 -45q86 -75 86 -200q0 -112 -71 -186.5t-181 -74.5q-58 0 -108 22l-24 -39l-59 33l26 42q-87 76 -87 203q0 112 71 186.5t181 74.5zM120 245q0 -76 44 -125l179 288q-31 14 -63 14q-65 0 -112.5 -48.5t-47.5 -128.5zM280 68
q65 0 112.5 48.5t47.5 128.5q0 75 -42 123l-179 -287q27 -13 61 -13z" />
    <glyph glyph-name="ugrave" unicode="&#xf9;" 
d="M486 0h-88v68h-4q-21 -35 -64 -59.5t-91 -24.5q-92 0 -139.5 56t-47.5 150v300h92v-285q0 -137 121 -137q57 0 93 46t36 106v270h92v-490zM317 588h-80l-72 128h100z" />
    <glyph glyph-name="uacute" unicode="&#xfa;" 
d="M486 0h-88v68h-4q-21 -35 -64 -59.5t-91 -24.5q-92 0 -139.5 56t-47.5 150v300h92v-285q0 -137 121 -137q57 0 93 46t36 106v270h92v-490zM303 588h-80l52 128h100z" />
    <glyph glyph-name="ucircumflex" unicode="&#xfb;" 
d="M486 0h-88v68h-4q-21 -35 -64 -59.5t-91 -24.5q-92 0 -139.5 56t-47.5 150v300h92v-285q0 -137 121 -137q57 0 93 46t36 106v270h92v-490zM128 578v5l103 117h80l103 -117v-5h-89l-50 60h-8l-50 -60h-89z" />
    <glyph glyph-name="udieresis" unicode="&#xfc;" 
d="M486 0h-88v68h-4q-21 -35 -64 -59.5t-91 -24.5q-92 0 -139.5 56t-47.5 150v300h92v-285q0 -137 121 -137q57 0 93 46t36 106v270h92v-490zM357 602q-23 0 -40 17t-17 40q0 24 17 40.5t40 16.5q25 0 41 -16t16 -41q0 -23 -16.5 -40t-40.5 -17zM189 602q-23 0 -40 17
t-17 40q0 24 17 40.5t40 16.5q25 0 41 -16t16 -41q0 -23 -16.5 -40t-40.5 -17z" />
    <glyph glyph-name="yacute" unicode="&#xfd;" horiz-adv-x="498" 
d="M290 588h-80l52 128h100zM187 -216h-95l114 247l-202 459h100l146 -352h2l142 352h100z" />
    <glyph glyph-name="thorn" unicode="&#xfe;" horiz-adv-x="576" 
d="M315 -16q-56 0 -100.5 24t-66.5 60h-4l4 -68v-216h-92v932h92v-226l-4 -68h4q22 36 66.5 60t100.5 24q95 0 164 -75t69 -186t-69 -186t-164 -75zM300 68q64 0 110 48.5t46 128.5t-46 128.5t-110 48.5q-65 0 -110.5 -48t-45.5 -129t45.5 -129t110.5 -48z" />
    <glyph glyph-name="ydieresis" unicode="&#xff;" horiz-adv-x="498" 
d="M187 -216h-95l114 247l-202 459h100l146 -352h2l142 352h100zM335 602q-23 0 -40 17t-17 40q0 24 17 40.5t40 16.5q25 0 41 -16t16 -41q0 -23 -16.5 -40t-40.5 -17zM167 602q-23 0 -40 17t-17 40q0 24 17 40.5t40 16.5q25 0 41 -16t16 -41q0 -23 -16.5 -40t-40.5 -17z
" />
    <glyph glyph-name="dotlessi" unicode="&#x131;" horiz-adv-x="220" 
d="M156 0h-92v490h92v-490z" />
    <glyph glyph-name="OE" unicode="&#x152;" horiz-adv-x="1149" 
d="M1097 628h-326v-227h294v-86h-294v-227h326v-88h-418v110q-101 -126 -274 -126q-157 0 -262.5 108.5t-105.5 265.5t105.5 265.5t262.5 108.5q173 0 274 -127v111h418v-88zM210 152q80 -80 195 -80t194.5 80.5t79.5 205.5t-79.5 205.5t-194.5 80.5t-194.5 -80.5
t-79.5 -205.5t79 -206z" />
    <glyph glyph-name="oe" unicode="&#x153;" horiz-adv-x="952" 
d="M280 -16q-110 0 -181 74.5t-71 186.5t71 186.5t181 74.5q68 0 122.5 -31.5t85.5 -85.5q30 54 80.5 85.5t115.5 31.5q109 0 174.5 -71t65.5 -190l-1 -17h-387q4 -74 49.5 -117t106.5 -43q99 0 134 84l82 -34q-24 -57 -79 -95.5t-135 -38.5q-70 0 -123 30.5t-84 85.5
q-31 -54 -85 -85t-122 -31zM167 116q48 -48 113 -48t112.5 48.5t47.5 128.5t-47.5 128.5t-112.5 48.5t-112.5 -48.5t-47.5 -128.5t47 -129zM826 304q-3 42 -38.5 80t-105.5 38q-51 0 -88.5 -32t-51.5 -86h284z" />
    <glyph glyph-name="circumflex" unicode="&#x2c6;" horiz-adv-x="400" 
d="M57 594v5l103 117h80l103 -117v-5h-89l-50 60h-8l-50 -60h-89z" />
    <glyph glyph-name="ring" unicode="&#x2da;" horiz-adv-x="400" 
d="M96 672q0 44 30 74t74 30q43 0 73.5 -30.5t30.5 -73.5t-30.5 -73.5t-73.5 -30.5t-73.5 30.5t-30.5 73.5zM169 640q13 -13 31 -13t31 13.5t13 31.5t-13 31t-31 13t-31 -13t-13 -31t13 -32z" />
    <glyph glyph-name="tilde" unicode="&#x2dc;" horiz-adv-x="400" 
d="M257 594q-26 0 -67.5 22.5t-48.5 22.5q-30 0 -33 -35h-76q0 58 34.5 88t76.5 30q26 0 68 -22.5t48 -22.5q30 0 33 35h76q0 -58 -34.5 -88t-76.5 -30z" />
    <glyph glyph-name="endash" unicode="&#x2013;" horiz-adv-x="592" 
d="M56 272v76h480v-76h-480z" />
    <glyph glyph-name="emdash" unicode="&#x2014;" horiz-adv-x="892" 
d="M56 272v76h780v-76h-780z" />
    <glyph glyph-name="quoteleft" unicode="&#x2018;" horiz-adv-x="232" 
d="M141 732l43 -28l-54 -76q22 -4 38 -20.5t16 -41.5q0 -28 -20 -48t-48 -20t-48 20t-20 48q0 29 30 74z" />
    <glyph glyph-name="quoteright" unicode="&#x2019;" horiz-adv-x="232" 
d="M91 498l-43 28l54 76q-22 4 -38 20.5t-16 41.5q0 28 20 48t48 20t48 -20t20 -48q0 -29 -30 -74z" />
    <glyph glyph-name="quotesinglbase" unicode="&#x201a;" horiz-adv-x="232" 
d="M91 -104l-43 28l54 76q-22 4 -38 20.5t-16 41.5q0 28 20 48t48 20t48 -20t20 -48q0 -29 -30 -74z" />
    <glyph glyph-name="quotedblleft" unicode="&#x201c;" horiz-adv-x="408" 
d="M141 732l43 -28l-54 -76q22 -4 38 -20.5t16 -41.5q0 -28 -20 -48t-48 -20t-48 20t-20 48q0 29 30 74zM317 732l43 -28l-54 -76q22 -4 38 -20.5t16 -41.5q0 -28 -20 -48t-48 -20t-48 20t-20 48q0 29 30 74z" />
    <glyph glyph-name="quotedblright" unicode="&#x201d;" horiz-adv-x="408" 
d="M267 498l-43 28l54 76q-22 4 -38 20.5t-16 41.5q0 28 20 48t48 20t48 -20t20 -48q0 -29 -30 -74zM91 498l-43 28l54 76q-22 4 -38 20.5t-16 41.5q0 28 20 48t48 20t48 -20t20 -48q0 -29 -30 -74z" />
    <glyph glyph-name="quotedblbase" unicode="&#x201e;" horiz-adv-x="408" 
d="M267 -104l-43 28l54 76q-22 4 -38 20.5t-16 41.5q0 28 20 48t48 20t48 -20t20 -48q0 -29 -30 -74zM91 -104l-43 28l54 76q-22 4 -38 20.5t-16 41.5q0 28 20 48t48 20t48 -20t20 -48q0 -29 -30 -74z" />
    <glyph glyph-name="bullet" unicode="&#x2022;" horiz-adv-x="400" 
d="M285 239q-35 -35 -85 -35t-85 35t-35 85t35 85t85 35t85 -35t35 -85t-35 -85z" />
    <glyph glyph-name="ellipsis" unicode="&#x2026;" horiz-adv-x="704" 
d="M164 14q-20 -20 -48 -20t-48 20t-20 48t20 48t48 20t48 -20t20 -48t-20 -48zM400 14q-20 -20 -48 -20t-48 20t-20 48t20 48t48 20t48 -20t20 -48t-20 -48zM636 14q-20 -20 -48 -20t-48 20t-20 48t20 48t48 20t48 -20t20 -48t-20 -48z" />
    <glyph glyph-name="guilsinglleft" unicode="&#x2039;" horiz-adv-x="356" 
d="M136 271l160 -169l-54 -50l-202 219l202 219l54 -50z" />
    <glyph glyph-name="guilsinglright" unicode="&#x203a;" horiz-adv-x="356" 
d="M60 102l160 169l-160 169l54 50l202 -219l-202 -219z" />
    <glyph glyph-name="fraction" unicode="&#x2044;" horiz-adv-x="170" 
d="M-119 -8l-57 37l466 695l56 -38z" />
    <glyph glyph-name="Euro" unicode="&#x20ac;" horiz-adv-x="629" 
d="M24 384v76h97q33 110 120 175t200 65q84 0 149 -41l-44 -75q-49 27 -105 27q-75 0 -135 -39t-88 -112h223v-76h-241q-2 -28 -2 -42q0 -16 2 -42h241v-76h-223q28 -73 88 -112t135 -39q66 0 122 32l42 -80q-71 -41 -164 -41q-113 0 -200 65t-120 175h-97v76h82
q-2 13 -2 42q0 28 2 42h-82z" />
    <glyph glyph-name="degree_C" horiz-adv-x="973" 
d="M665 -16q-152 0 -254 102.5t-102 255.5t102 255.5t254 102.5t251 -114l-63 -62q-68 87 -188 87q-112 0 -187 -73t-75 -196t75 -196t187 -73q122 0 208 99l64 -63q-106 -125 -272 -125zM163 442q-54 0 -92.5 38t-38.5 91q0 54 38.5 91.5t92.5 37.5t92 -37.5t38 -91.5
q0 -53 -38.5 -91t-91.5 -38zM163 506q25 0 43.5 19.5t18.5 45.5q0 27 -18 46t-44 19t-44.5 -19t-18.5 -46q0 -26 18.5 -45.5t44.5 -19.5z" />
    <glyph glyph-name="degree_F" horiz-adv-x="813" 
d="M469 0h-92v684h404v-88h-312v-219h281v-86h-281v-291zM163 442q-54 0 -92.5 38t-38.5 91q0 54 38.5 91.5t92.5 37.5t92 -37.5t38 -91.5q0 -53 -38.5 -91t-91.5 -38zM163 506q25 0 43.5 19.5t18.5 45.5q0 27 -18 46t-44 19t-44.5 -19t-18.5 -46q0 -26 18.5 -45.5
t44.5 -19.5z" />
    <glyph glyph-name="minus" unicode="&#x2212;" horiz-adv-x="550" 
d="M494 233h-438v76h438v-76z" />
    <glyph glyph-name="g_o_o_g_l_e_underscore_g" horiz-adv-x="1000" 
d="M499 451h392q7 -39 7 -86q0 -179 -110 -292.5t-289 -113.5q-113 0 -209 55.5t-151.5 151.5t-55.5 209t55.5 209t151.5 151.5t209 55.5q162 0 278 -108l-119 -120q-65 62 -159 62q-102 0 -174 -74t-72 -176t72 -176.5t174 -74.5q90 0 150 46t74 120h-224v161z" />
    <glyph glyph-name="g_o_o_g_l_e_underscore_l_o_g_o" horiz-adv-x="3284" 
d="M460 -16q-170 0 -293 120.5t-123 289.5t123 289.5t293 120.5q163 0 281 -113l-79 -79q-85 80 -202 80q-123 0 -208.5 -87t-85.5 -211t85.5 -211t208.5 -87q125 0 207 82q49 49 61 141h-268v112h377q6 -30 6 -70q0 -165 -97 -262q-110 -115 -286 -115zM1336 59
q-77 -75 -188 -75t-188 75.5t-77 188.5t77 188.5t188 75.5t188 -75.5t77 -188.5t-77 -189zM1297 248q0 70 -43.5 115t-105.5 45t-105.5 -45t-43.5 -115q0 -69 44 -114.5t105 -45.5t105 45.5t44 114.5zM1914 59q-77 -75 -188 -75t-188 75.5t-77 188.5t77 188.5t188 75.5
t188 -75.5t77 -188.5t-77 -189zM1875 248q0 70 -43.5 115t-105.5 45t-105.5 -45t-43.5 -115q0 -69 44 -114.5t105 -45.5t105 45.5t44 114.5zM2294 -253q-88 0 -148 47t-86 109l101 42q16 -38 50 -66t83 -28q66 0 103.5 40t37.5 115v38h-4q-49 -60 -139 -60q-101 0 -177 77
t-76 186q0 110 76 187.5t177 77.5q45 0 81.5 -17t57.5 -42h4v43h110v-474q0 -138 -70.5 -206.5t-180.5 -68.5zM2302 88q60 0 100.5 45.5t40.5 113.5q0 69 -40.5 115t-100.5 46q-61 0 -104 -46t-43 -115q0 -68 43 -113.5t104 -45.5zM2741 776v-776h-116v776h116zM3059 -16
q-112 0 -187 76t-75 188q0 116 72.5 190t176.5 74q48 0 89 -17.5t68 -45t43 -53.5t26 -52l12 -30l-353 -146q41 -80 128 -80q80 0 130 73l90 -60q-30 -45 -85 -81t-135 -36zM2912 256l236 98q-10 25 -37 40.5t-61 15.5q-51 0 -95.5 -42t-42.5 -112z" />
    <glyph glyph-name="uni1EA0" unicode="&#x1ea0;" horiz-adv-x="668" 
d="M382 -191q-20 -20 -48 -20t-48 20t-20 48t20 48t48 20t48 -20t20 -48t-20 -48zM12 0l270 716h104l270 -716h-102l-69 194h-301l-70 -194h-102zM215 280h238l-117 323h-4z" />
    <glyph glyph-name="uni1EA1" unicode="&#x1ea1;" horiz-adv-x="512" 
d="M274 -191q-20 -20 -48 -20t-48 20t-20 48t20 48t48 20t48 -20t20 -48t-20 -48zM211 -16q-78 0 -130.5 45t-52.5 119q0 80 62 125.5t153 45.5q81 0 133 -30v14q0 54 -37 86.5t-91 32.5q-40 0 -72.5 -19t-44.5 -52l-84 36q17 44 67 81.5t132 37.5q94 0 156 -55t62 -155
v-296h-88v68h-4q-55 -84 -161 -84zM226 68q57 0 103.5 42.5t46.5 100.5q-39 32 -117 32q-67 0 -101 -29t-34 -68q0 -36 31 -57t71 -21z" />
    <glyph glyph-name="uni1EA2" unicode="&#x1ea2;" horiz-adv-x="668" 
d="M304 762q6 19 18.5 31t25 22.5t22.5 20.5t12 24q3 27 -11.5 40t-30.5 13q-18 0 -29.5 -9t-23.5 -34l-47 24q5 13 13 25.5t20 22.5t28 16.5t38 6.5q19 0 37.5 -7.5t32 -20.5t21.5 -31t7 -38q0 -22 -8.5 -36t-20.5 -26l-26 -25t-26 -33zM12 0l270 716h104l270 -716h-102
l-69 194h-301l-70 -194h-102zM215 280h238l-117 323h-4z" />
    <glyph glyph-name="uni1EA3" unicode="&#x1ea3;" horiz-adv-x="512" 
d="M215 549q6 19 18.5 31t25 22.5t22.5 20.5t12 24q3 27 -11.5 40t-30.5 13q-18 0 -29.5 -9t-23.5 -34l-47 24q5 13 13 25.5t20 22.5t28 16.5t38 6.5q19 0 37.5 -7.5t32 -20.5t21.5 -31t7 -38q0 -22 -8.5 -36t-20.5 -26l-26 -25t-26 -33zM211 -16q-78 0 -130.5 45t-52.5 119
q0 80 62 125.5t153 45.5q81 0 133 -30v14q0 54 -37 86.5t-91 32.5q-40 0 -72.5 -19t-44.5 -52l-84 36q17 44 67 81.5t132 37.5q94 0 156 -55t62 -155v-296h-88v68h-4q-55 -84 -161 -84zM226 68q57 0 103.5 42.5t46.5 100.5q-39 32 -117 32q-67 0 -101 -29t-34 -68
q0 -36 31 -57t71 -21z" />
    <glyph glyph-name="uni1EA4" unicode="&#x1ea4;" horiz-adv-x="668" 
d="M12 0l270 716h104l270 -716h-102l-69 194h-301l-70 -194h-102zM215 280h238l-117 323h-4zM191 778v5l103 117h80l103 -117v-5h-89l-50 60h-8l-50 -60h-89zM548 835h-80l52 128h100z" />
    <glyph glyph-name="uni1EA5" unicode="&#x1ea5;" horiz-adv-x="512" 
d="M211 -16q-78 0 -130.5 45t-52.5 119q0 80 62 125.5t153 45.5q81 0 133 -30v14q0 54 -37 86.5t-91 32.5q-40 0 -72.5 -19t-44.5 -52l-84 36q17 44 67 81.5t132 37.5q94 0 156 -55t62 -155v-296h-88v68h-4q-55 -84 -161 -84zM226 68q57 0 103.5 42.5t46.5 100.5
q-39 32 -117 32q-67 0 -101 -29t-34 -68q0 -36 31 -57t71 -21zM105 561v5l103 117h80l103 -117v-5h-89l-50 60h-8l-50 -60h-89zM426 671h-80l52 128h100z" />
    <glyph glyph-name="uni1EA6" unicode="&#x1ea6;" horiz-adv-x="668" 
d="M191 778v5l103 117h80l103 -117v-5h-89l-50 60h-8l-50 -60h-89zM12 0l270 716h104l270 -716h-102l-69 194h-301l-70 -194h-102zM215 280h238l-117 323h-4zM590 835h-80l-72 128h100z" />
    <glyph glyph-name="Abreve" unicode="&#x102;" horiz-adv-x="668" 
d="M264 899q4 -32 23 -50.5t47 -18.5q35 0 53 22.5t22 46.5h53q0 -57 -35.5 -90t-92.5 -33q-32 0 -55.5 10t-38.5 27.5t-22 39.5t-7 46h53zM12 0l270 716h104l270 -716h-102l-69 194h-301l-70 -194h-102zM215 280h238l-117 323h-4z" />
    <glyph glyph-name="partialdiff" unicode="&#x2202;" horiz-adv-x="0" 
 />
    <glyph glyph-name="abreve" unicode="&#x103;" horiz-adv-x="512" 
d="M183 717q4 -32 23 -50.5t47 -18.5q35 0 53 22.5t22 46.5h53q0 -57 -35.5 -90t-92.5 -33q-32 0 -55.5 10t-38.5 27.5t-22 39.5t-7 46h53zM211 -16q-78 0 -130.5 45t-52.5 119q0 80 62 125.5t153 45.5q81 0 133 -30v14q0 54 -37 86.5t-91 32.5q-40 0 -72.5 -19t-44.5 -52
l-84 36q17 44 67 81.5t132 37.5q94 0 156 -55t62 -155v-296h-88v68h-4q-55 -84 -161 -84zM226 68q57 0 103.5 42.5t46.5 100.5q-39 32 -117 32q-67 0 -101 -29t-34 -68q0 -36 31 -57t71 -21z" />
    <glyph glyph-name="uni1EA7" unicode="&#x1ea7;" horiz-adv-x="512" 
d="M505 653h-80l-72 128h100zM211 -16q-78 0 -130.5 45t-52.5 119q0 80 62 125.5t153 45.5q81 0 133 -30v14q0 54 -37 86.5t-91 32.5q-40 0 -72.5 -19t-44.5 -52l-84 36q17 44 67 81.5t132 37.5q94 0 156 -55t62 -155v-296h-88v68h-4q-55 -84 -161 -84zM226 68
q57 0 103.5 42.5t46.5 100.5q-39 32 -117 32q-67 0 -101 -29t-34 -68q0 -36 31 -57t71 -21zM105 594v5l103 117h80l103 -117v-5h-89l-50 60h-8l-50 -60h-89z" />
    <glyph glyph-name="uni1EA8" unicode="&#x1ea8;" horiz-adv-x="668" 
d="M477 853q6 19 18.5 31t25 22.5t22.5 20.5t12 24q3 27 -11.5 40t-30.5 13q-18 0 -29.5 -9t-23.5 -34l-47 24q5 13 13 25.5t20 22.5t28 16.5t38 6.5q19 0 37.5 -7.5t32 -20.5t21.5 -31t7 -38q0 -22 -8.5 -36t-20.5 -26l-26 -25t-26 -33zM12 0l270 716h104l270 -716h-102
l-69 194h-301l-70 -194h-102zM215 280h238l-117 323h-4zM191 778v5l103 117h80l103 -117v-5h-89l-50 60h-8l-50 -60h-89z" />
    <glyph glyph-name="uni1EA9" unicode="&#x1ea9;" horiz-adv-x="512" 
d="M372 677q6 19 18.5 31t25 22.5t22.5 20.5t12 24q3 27 -11.5 40t-30.5 13q-18 0 -29.5 -9t-23.5 -34l-47 24q5 13 13 25.5t20 22.5t28 16.5t38 6.5q19 0 37.5 -7.5t32 -20.5t21.5 -31t7 -38q0 -22 -8.5 -36t-20.5 -26l-26 -25t-26 -33zM211 -16q-78 0 -130.5 45t-52.5 119
q0 80 62 125.5t153 45.5q81 0 133 -30v14q0 54 -37 86.5t-91 32.5q-40 0 -72.5 -19t-44.5 -52l-84 36q17 44 67 81.5t132 37.5q94 0 156 -55t62 -155v-296h-88v68h-4q-55 -84 -161 -84zM226 68q57 0 103.5 42.5t46.5 100.5q-39 32 -117 32q-67 0 -101 -29t-34 -68
q0 -36 31 -57t71 -21zM105 594v5l103 117h80l103 -117v-5h-89l-50 60h-8l-50 -60h-89z" />
    <glyph glyph-name="uni1EAA" unicode="&#x1eaa;" horiz-adv-x="668" 
d="M12 0l270 716h104l270 -716h-102l-69 194h-301l-70 -194h-102zM215 280h238l-117 323h-4zM191 778v5l103 117h80l103 -117v-5h-89l-50 60h-8l-50 -60h-89zM391 923q-26 0 -67.5 22.5t-48.5 22.5q-30 0 -33 -35h-76q0 58 34.5 88t76.5 30q26 0 68 -22.5t48 -22.5
q30 0 33 35h76q0 -58 -34.5 -88t-76.5 -30z" />
    <glyph glyph-name="uni1EAB" unicode="&#x1eab;" horiz-adv-x="512" 
d="M211 -16q-78 0 -130.5 45t-52.5 119q0 80 62 125.5t153 45.5q81 0 133 -30v14q0 54 -37 86.5t-91 32.5q-40 0 -72.5 -19t-44.5 -52l-84 36q17 44 67 81.5t132 37.5q94 0 156 -55t62 -155v-296h-88v68h-4q-55 -84 -161 -84zM226 68q57 0 103.5 42.5t46.5 100.5
q-39 32 -117 32q-67 0 -101 -29t-34 -68q0 -36 31 -57t71 -21zM105 594v5l103 117h80l103 -117v-5h-89l-50 60h-8l-50 -60h-89zM310 753q-26 0 -67.5 22.5t-48.5 22.5q-30 0 -33 -35h-76q0 58 34.5 88t76.5 30q26 0 68 -22.5t48 -22.5q30 0 33 35h76q0 -58 -34.5 -88
t-76.5 -30z" />
    <glyph glyph-name="uni1EAC" unicode="&#x1eac;" horiz-adv-x="668" 
d="M382 -191q-20 -20 -48 -20t-48 20t-20 48t20 48t48 20t48 -20t20 -48t-20 -48zM12 0l270 716h104l270 -716h-102l-69 194h-301l-70 -194h-102zM215 280h238l-117 323h-4zM191 820v5l103 117h80l103 -117v-5h-89l-50 60h-8l-50 -60h-89z" />
    <glyph glyph-name="uni1EAD" unicode="&#x1ead;" horiz-adv-x="512" 
d="M274 -191q-20 -20 -48 -20t-48 20t-20 48t20 48t48 20t48 -20t20 -48t-20 -48zM211 -16q-78 0 -130.5 45t-52.5 119q0 80 62 125.5t153 45.5q81 0 133 -30v14q0 54 -37 86.5t-91 32.5q-40 0 -72.5 -19t-44.5 -52l-84 36q17 44 67 81.5t132 37.5q94 0 156 -55t62 -155
v-296h-88v68h-4q-55 -84 -161 -84zM226 68q57 0 103.5 42.5t46.5 100.5q-39 32 -117 32q-67 0 -101 -29t-34 -68q0 -36 31 -57t71 -21zM106 594v5l103 117h80l103 -117v-5h-89l-50 60h-8l-50 -60h-89z" />
    <glyph glyph-name="uni1EAE" unicode="&#x1eae;" horiz-adv-x="668" 
d="M264 899q4 -32 23 -50.5t47 -18.5q35 0 53 22.5t22 46.5h53q0 -57 -35.5 -90t-92.5 -33q-32 0 -55.5 10t-38.5 27.5t-22 39.5t-7 46h53zM12 0l270 716h104l270 -716h-102l-69 194h-301l-70 -194h-102zM215 280h238l-117 323h-4zM382 920h-80l52 128h100z" />
    <glyph glyph-name="uni1EAF" unicode="&#x1eaf;" horiz-adv-x="512" 
d="M211 -16q-78 0 -130.5 45t-52.5 119q0 80 62 125.5t153 45.5q81 0 133 -30v14q0 54 -37 86.5t-91 32.5q-40 0 -72.5 -19t-44.5 -52l-84 36q17 44 67 81.5t132 37.5q94 0 156 -55t62 -155v-296h-88v68h-4q-55 -84 -161 -84zM226 68q57 0 103.5 42.5t46.5 100.5
q-39 32 -117 32q-67 0 -101 -29t-34 -68q0 -36 31 -57t71 -21zM183 719q4 -32 23 -50.5t47 -18.5q35 0 53 22.5t22 46.5h53q0 -57 -35.5 -90t-92.5 -33q-32 0 -55.5 10t-38.5 27.5t-22 39.5t-7 46h53zM299 740h-80l52 128h100z" />
    <glyph glyph-name="uni1EB0" unicode="&#x1eb0;" horiz-adv-x="668" 
d="M379 909h-80l-72 128h100zM264 899q4 -32 23 -50.5t47 -18.5q35 0 53 22.5t22 46.5h53q0 -57 -35.5 -90t-92.5 -33q-32 0 -55.5 10t-38.5 27.5t-22 39.5t-7 46h53zM12 0l270 716h104l270 -716h-102l-69 194h-301l-70 -194h-102zM215 280h238l-117 323h-4z" />
    <glyph glyph-name="uni1EB1" unicode="&#x1eb1;" horiz-adv-x="512" 
d="M299 735h-80l-72 128h100zM183 717q4 -32 23 -50.5t47 -18.5q35 0 53 22.5t22 46.5h53q0 -57 -35.5 -90t-92.5 -33q-32 0 -55.5 10t-38.5 27.5t-22 39.5t-7 46h53zM211 -16q-78 0 -130.5 45t-52.5 119q0 80 62 125.5t153 45.5q81 0 133 -30v14q0 54 -37 86.5t-91 32.5
q-40 0 -72.5 -19t-44.5 -52l-84 36q17 44 67 81.5t132 37.5q94 0 156 -55t62 -155v-296h-88v68h-4q-55 -84 -161 -84zM226 68q57 0 103.5 42.5t46.5 100.5q-39 32 -117 32q-67 0 -101 -29t-34 -68q0 -36 31 -57t71 -21z" />
    <glyph glyph-name="uni1EB2" unicode="&#x1eb2;" horiz-adv-x="668" 
d="M305 914q6 19 18.5 31t25 22.5t22.5 20.5t12 24q3 27 -11.5 40t-30.5 13q-18 0 -29.5 -9t-23.5 -34l-47 24q5 13 13 25.5t20 22.5t28 16.5t38 6.5q19 0 37.5 -7.5t32 -20.5t21.5 -31t7 -38q0 -22 -8.5 -36t-20.5 -26l-26 -25t-26 -33zM264 899q4 -32 23 -50.5t47 -18.5
q35 0 53 22.5t22 46.5h53q0 -57 -35.5 -90t-92.5 -33q-32 0 -55.5 10t-38.5 27.5t-22 39.5t-7 46h53zM12 0l270 716h104l270 -716h-102l-69 194h-301l-70 -194h-102zM215 280h238l-117 323h-4z" />
    <glyph glyph-name="uni1EB3" unicode="&#x1eb3;" horiz-adv-x="512" 
d="M220 734q6 19 18.5 31t25 22.5t22.5 20.5t12 24q3 27 -11.5 40t-30.5 13q-18 0 -29.5 -9t-23.5 -34l-47 24q5 13 13 25.5t20 22.5t28 16.5t38 6.5q19 0 37.5 -7.5t32 -20.5t21.5 -31t7 -38q0 -22 -8.5 -36t-20.5 -26l-26 -25t-26 -33zM183 717q4 -32 23 -50.5t47 -18.5
q35 0 53 22.5t22 46.5h53q0 -57 -35.5 -90t-92.5 -33q-32 0 -55.5 10t-38.5 27.5t-22 39.5t-7 46h53zM211 -16q-78 0 -130.5 45t-52.5 119q0 80 62 125.5t153 45.5q81 0 133 -30v14q0 54 -37 86.5t-91 32.5q-40 0 -72.5 -19t-44.5 -52l-84 36q17 44 67 81.5t132 37.5
q94 0 156 -55t62 -155v-296h-88v68h-4q-55 -84 -161 -84zM226 68q57 0 103.5 42.5t46.5 100.5q-39 32 -117 32q-67 0 -101 -29t-34 -68q0 -36 31 -57t71 -21z" />
    <glyph glyph-name="uni1EB4" unicode="&#x1eb4;" horiz-adv-x="668" 
d="M379 932q-19 0 -50 16.5t-35 16.5q-23 0 -25 -25h-56q0 42 25.5 64.5t56.5 22.5q20 0 51 -17t35 -17q22 0 24 26h57q0 -42 -25.5 -64.5t-57.5 -22.5zM264 899q4 -32 23 -50.5t47 -18.5q35 0 53 22.5t22 46.5h53q0 -57 -35.5 -90t-92.5 -33q-32 0 -55.5 10t-38.5 27.5
t-22 39.5t-7 46h53zM12 0l270 716h104l270 -716h-102l-69 194h-301l-70 -194h-102zM215 280h238l-117 323h-4z" />
    <glyph glyph-name="uni1EB5" unicode="&#x1eb5;" horiz-adv-x="512" 
d="M294 740q-19 0 -50 16.5t-35 16.5q-23 0 -25 -25h-56q0 42 25.5 64.5t56.5 22.5q20 0 51 -17t35 -17q22 0 24 26h57q0 -42 -25.5 -64.5t-57.5 -22.5zM183 717q4 -32 23 -50.5t47 -18.5q35 0 53 22.5t22 46.5h53q0 -57 -35.5 -90t-92.5 -33q-32 0 -55.5 10t-38.5 27.5
t-22 39.5t-7 46h53zM211 -16q-78 0 -130.5 45t-52.5 119q0 80 62 125.5t153 45.5q81 0 133 -30v14q0 54 -37 86.5t-91 32.5q-40 0 -72.5 -19t-44.5 -52l-84 36q17 44 67 81.5t132 37.5q94 0 156 -55t62 -155v-296h-88v68h-4q-55 -84 -161 -84zM226 68q57 0 103.5 42.5
t46.5 100.5q-39 32 -117 32q-67 0 -101 -29t-34 -68q0 -36 31 -57t71 -21z" />
    <glyph glyph-name="uni1EB6" unicode="&#x1eb6;" horiz-adv-x="668" 
d="M264 899q4 -32 23 -50.5t47 -18.5q35 0 53 22.5t22 46.5h53q0 -57 -35.5 -90t-92.5 -33q-32 0 -55.5 10t-38.5 27.5t-22 39.5t-7 46h53zM382 -191q-20 -20 -48 -20t-48 20t-20 48t20 48t48 20t48 -20t20 -48t-20 -48zM12 0l270 716h104l270 -716h-102l-69 194h-301
l-70 -194h-102zM215 280h238l-117 323h-4z" />
    <glyph glyph-name="uni1EB7" unicode="&#x1eb7;" horiz-adv-x="512" 
d="M183 717q4 -32 23 -50.5t47 -18.5q35 0 53 22.5t22 46.5h53q0 -57 -35.5 -90t-92.5 -33q-32 0 -55.5 10t-38.5 27.5t-22 39.5t-7 46h53zM274 -191q-20 -20 -48 -20t-48 20t-20 48t20 48t48 20t48 -20t20 -48t-20 -48zM211 -16q-78 0 -130.5 45t-52.5 119q0 80 62 125.5
t153 45.5q81 0 133 -30v14q0 54 -37 86.5t-91 32.5q-40 0 -72.5 -19t-44.5 -52l-84 36q17 44 67 81.5t132 37.5q94 0 156 -55t62 -155v-296h-88v68h-4q-55 -84 -161 -84zM226 68q57 0 103.5 42.5t46.5 100.5q-39 32 -117 32q-67 0 -101 -29t-34 -68q0 -36 31 -57t71 -21z
" />
    <glyph glyph-name="uni1EB9" unicode="&#x1eb9;" horiz-adv-x="536" 
d="M314 -191q-20 -20 -48 -20t-48 20t-20 48t20 48t48 20t48 -20t20 -48t-20 -48zM278 -16q-111 0 -180.5 74t-69.5 187q0 107 67.5 184t172.5 77q109 0 174.5 -71t65.5 -190l-1 -17h-387q4 -74 49.5 -117t106.5 -43q99 0 134 84l82 -34q-24 -57 -79 -95.5t-135 -38.5z
M410 304q-3 42 -38.5 80t-105.5 38q-51 0 -88.5 -32t-51.5 -86h284z" />
    <glyph glyph-name="uni1EB8" unicode="&#x1eb8;" 
d="M314 -191q-20 -20 -48 -20t-48 20t-20 48t20 48t48 20t48 -20t20 -48t-20 -48zM490 628h-326v-227h294v-86h-294v-227h326v-88h-418v716h418v-88z" />
    <glyph glyph-name="uni1EBA" unicode="&#x1eba;" 
d="M246 762q6 19 18.5 31t25 22.5t22.5 20.5t12 24q3 27 -11.5 40t-30.5 13q-18 0 -29.5 -9t-23.5 -34l-47 24q5 13 13 25.5t20 22.5t28 16.5t38 6.5q19 0 37.5 -7.5t32 -20.5t21.5 -31t7 -38q0 -22 -8.5 -36t-20.5 -26l-26 -25t-26 -33zM490 628h-326v-227h294v-86h-294
v-227h326v-88h-418v716h418v-88z" />
    <glyph glyph-name="uni1EBB" unicode="&#x1ebb;" horiz-adv-x="536" 
d="M246 549q6 19 18.5 31t25 22.5t22.5 20.5t12 24q3 27 -11.5 40t-30.5 13q-18 0 -29.5 -9t-23.5 -34l-47 24q5 13 13 25.5t20 22.5t28 16.5t38 6.5q19 0 37.5 -7.5t32 -20.5t21.5 -31t7 -38q0 -22 -8.5 -36t-20.5 -26l-26 -25t-26 -33zM278 -16q-111 0 -180.5 74
t-69.5 187q0 107 67.5 184t172.5 77q109 0 174.5 -71t65.5 -190l-1 -17h-387q4 -74 49.5 -117t106.5 -43q99 0 134 84l82 -34q-24 -57 -79 -95.5t-135 -38.5zM410 304q-3 42 -38.5 80t-105.5 38q-51 0 -88.5 -32t-51.5 -86h284z" />
    <glyph glyph-name="uni1EBC" unicode="&#x1ebc;" 
d="M490 628h-326v-227h294v-86h-294v-227h326v-88h-418v716h418v-88zM328 820q-26 0 -67.5 22.5t-48.5 22.5q-30 0 -33 -35h-76q0 58 34.5 88t76.5 30q26 0 68 -22.5t48 -22.5q30 0 33 35h76q0 -58 -34.5 -88t-76.5 -30z" />
    <glyph glyph-name="uni1EBD" unicode="&#x1ebd;" horiz-adv-x="536" 
d="M278 -16q-111 0 -180.5 74t-69.5 187q0 107 67.5 184t172.5 77q109 0 174.5 -71t65.5 -190l-1 -17h-387q4 -74 49.5 -117t106.5 -43q99 0 134 84l82 -34q-24 -57 -79 -95.5t-135 -38.5zM410 304q-3 42 -38.5 80t-105.5 38q-51 0 -88.5 -32t-51.5 -86h284zM325 594
q-26 0 -67.5 22.5t-48.5 22.5q-30 0 -33 -35h-76q0 58 34.5 88t76.5 30q26 0 68 -22.5t48 -22.5q30 0 33 35h76q0 -58 -34.5 -88t-76.5 -30z" />
    <glyph glyph-name="uni1EBE" unicode="&#x1ebe;" 
d="M485 862h-80l52 128h100zM490 628h-326v-227h294v-86h-294v-227h326v-88h-418v716h418v-88zM138 778v5l103 117h80l103 -117v-5h-89l-50 60h-8l-50 -60h-89z" />
    <glyph glyph-name="uni1EBF" unicode="&#x1ebf;" horiz-adv-x="536" 
d="M278 -16q-111 0 -180.5 74t-69.5 187q0 107 67.5 184t172.5 77q109 0 174.5 -71t65.5 -190l-1 -17h-387q4 -74 49.5 -117t106.5 -43q99 0 134 84l82 -34q-24 -57 -79 -95.5t-135 -38.5zM410 304q-3 42 -38.5 80t-105.5 38q-51 0 -88.5 -32t-51.5 -86h284zM485 666h-80
l52 128h100zM138 582v5l103 117h80l103 -117v-5h-89l-50 60h-8l-50 -60h-89z" />
    <glyph glyph-name="uni1EC0" unicode="&#x1ec0;" 
d="M539 835h-80l-72 128h100zM490 628h-326v-227h294v-86h-294v-227h326v-88h-418v716h418v-88zM138 778v5l103 117h80l103 -117v-5h-89l-50 60h-8l-50 -60h-89z" />
    <glyph glyph-name="uni1EC1" unicode="&#x1ec1;" horiz-adv-x="536" 
d="M526 641h-80l-72 128h100zM278 -16q-111 0 -180.5 74t-69.5 187q0 107 67.5 184t172.5 77q109 0 174.5 -71t65.5 -190l-1 -17h-387q4 -74 49.5 -117t106.5 -43q99 0 134 84l82 -34q-24 -57 -79 -95.5t-135 -38.5zM410 304q-3 42 -38.5 80t-105.5 38q-51 0 -88.5 -32
t-51.5 -86h284zM128 584v5l103 117h80l103 -117v-5h-89l-50 60h-8l-50 -60h-89z" />
    <glyph glyph-name="uni1EC2" unicode="&#x1ec2;" 
d="M422 853q6 19 18.5 31t25 22.5t22.5 20.5t12 24q3 27 -11.5 40t-30.5 13q-18 0 -29.5 -9t-23.5 -34l-47 24q5 13 13 25.5t20 22.5t28 16.5t38 6.5q19 0 37.5 -7.5t32 -20.5t21.5 -31t7 -38q0 -22 -8.5 -36t-20.5 -26l-26 -25t-26 -33zM490 628h-326v-227h294v-86h-294
v-227h326v-88h-418v716h418v-88zM138 778v5l103 117h80l103 -117v-5h-89l-50 60h-8l-50 -60h-89z" />
    <glyph glyph-name="uni1EC3" unicode="&#x1ec3;" horiz-adv-x="536" 
d="M413 659q6 19 18.5 31t25 22.5t22.5 20.5t12 24q3 27 -11.5 40t-30.5 13q-18 0 -29.5 -9t-23.5 -34l-47 24q5 13 13 25.5t20 22.5t28 16.5t38 6.5q19 0 37.5 -7.5t32 -20.5t21.5 -31t7 -38q0 -22 -8.5 -36t-20.5 -26l-26 -25t-26 -33zM278 -16q-111 0 -180.5 74
t-69.5 187q0 107 67.5 184t172.5 77q109 0 174.5 -71t65.5 -190l-1 -17h-387q4 -74 49.5 -117t106.5 -43q99 0 134 84l82 -34q-24 -57 -79 -95.5t-135 -38.5zM410 304q-3 42 -38.5 80t-105.5 38q-51 0 -88.5 -32t-51.5 -86h284zM128 584v5l103 117h80l103 -117v-5h-89
l-50 60h-8l-50 -60h-89z" />
    <glyph glyph-name="uni1EC4" unicode="&#x1ec4;" 
d="M334 923q-26 0 -67.5 22.5t-48.5 22.5q-30 0 -33 -35h-76q0 58 34.5 88t76.5 30q26 0 68 -22.5t48 -22.5q30 0 33 35h76q0 -58 -34.5 -88t-76.5 -30zM490 628h-326v-227h294v-86h-294v-227h326v-88h-418v716h418v-88zM138 778v5l103 117h80l103 -117v-5h-89l-50 60h-8
l-50 -60h-89z" />
    <glyph glyph-name="uni1EC5" unicode="&#x1ec5;" horiz-adv-x="536" 
d="M328 729q-26 0 -67.5 22.5t-48.5 22.5q-30 0 -33 -35h-76q0 58 34.5 88t76.5 30q26 0 68 -22.5t48 -22.5q30 0 33 35h76q0 -58 -34.5 -88t-76.5 -30zM278 -16q-111 0 -180.5 74t-69.5 187q0 107 67.5 184t172.5 77q109 0 174.5 -71t65.5 -190l-1 -17h-387
q4 -74 49.5 -117t106.5 -43q99 0 134 84l82 -34q-24 -57 -79 -95.5t-135 -38.5zM410 304q-3 42 -38.5 80t-105.5 38q-51 0 -88.5 -32t-51.5 -86h284zM128 584v5l103 117h80l103 -117v-5h-89l-50 60h-8l-50 -60h-89z" />
    <glyph glyph-name="uni1EC6" unicode="&#x1ec6;" 
d="M314 -191q-20 -20 -48 -20t-48 20t-20 48t20 48t48 20t48 -20t20 -48t-20 -48zM490 628h-326v-227h294v-86h-294v-227h326v-88h-418v716h418v-88zM128 820v5l103 117h80l103 -117v-5h-89l-50 60h-8l-50 -60h-89z" />
    <glyph glyph-name="uni1EC7" unicode="&#x1ec7;" horiz-adv-x="536" 
d="M314 -191q-20 -20 -48 -20t-48 20t-20 48t20 48t48 20t48 -20t20 -48t-20 -48zM278 -16q-111 0 -180.5 74t-69.5 187q0 107 67.5 184t172.5 77q109 0 174.5 -71t65.5 -190l-1 -17h-387q4 -74 49.5 -117t106.5 -43q99 0 134 84l82 -34q-24 -57 -79 -95.5t-135 -38.5z
M410 304q-3 42 -38.5 80t-105.5 38q-51 0 -88.5 -32t-51.5 -86h284zM125 594v5l103 117h80l103 -117v-5h-89l-50 60h-8l-50 -60h-89z" />
    <glyph glyph-name="uni1EC8" unicode="&#x1ec8;" horiz-adv-x="236" 
d="M89 767q6 19 18.5 31t25 22.5t22.5 20.5t12 24q3 27 -11.5 40t-30.5 13q-18 0 -29.5 -9t-23.5 -34l-47 24q5 13 13 25.5t20 22.5t28 16.5t38 6.5q19 0 37.5 -7.5t32 -20.5t21.5 -31t7 -38q0 -22 -8.5 -36t-20.5 -26l-26 -25t-26 -33zM72 0v716h92v-716h-92z" />
    <glyph glyph-name="uni1EC9" unicode="&#x1ec9;" horiz-adv-x="220" 
d="M78 548q6 19 18.5 31t25 22.5t22.5 20.5t12 24q3 27 -11.5 40t-30.5 13q-18 0 -29.5 -9t-23.5 -34l-47 24q5 13 13 25.5t20 22.5t28 16.5t38 6.5q19 0 37.5 -7.5t32 -20.5t21.5 -31t7 -38q0 -22 -8.5 -36t-20.5 -26l-26 -25t-26 -33zM156 0h-92v490h92v-490z" />
    <glyph glyph-name="uni1ECA" unicode="&#x1eca;" horiz-adv-x="236" 
d="M167 -191q-20 -20 -48 -20t-48 20t-20 48t20 48t48 20t48 -20t20 -48t-20 -48zM72 0v716h92v-716h-92z" />
    <glyph glyph-name="uni1ECB" unicode="&#x1ecb;" horiz-adv-x="220" 
d="M157 -191q-20 -20 -48 -20t-48 20t-20 48t20 48t48 20t48 -20t20 -48t-20 -48zM156 613q-19 -19 -46 -19t-46 19t-19 46t19 46t46 19t46 -19t19 -46t-19 -46zM156 0h-92v490h92v-490z" />
    <glyph glyph-name="uni1ECC" unicode="&#x1ecc;" horiz-adv-x="810" 
d="M453 -191q-20 -20 -48 -20t-48 20t-20 48t20 48t48 20t48 -20t20 -48t-20 -48zM403 732q156 0 262 -109t106 -265q0 -157 -105.5 -265.5t-262.5 -108.5t-262.5 108.5t-105.5 265.5t105.5 265.5t262.5 108.5zM208 152q80 -80 195 -80t194.5 80.5t79.5 205.5t-79.5 205.5
t-194.5 80.5t-194.5 -80.5t-79.5 -205.5t79 -206z" />
    <glyph glyph-name="uni1ECD" unicode="&#x1ecd;" horiz-adv-x="560" 
d="M328 -191q-20 -20 -48 -20t-48 20t-20 48t20 48t48 20t48 -20t20 -48t-20 -48zM99 431q71 75 181 75t181 -74.5t71 -186.5t-71 -186.5t-181 -74.5t-181 74.5t-71 186.5t71 186zM167 116q48 -48 113 -48t112.5 48.5t47.5 128.5t-47.5 128.5t-112.5 48.5t-112.5 -48.5
t-47.5 -128.5t47 -129z" />
    <glyph glyph-name="uni1ECE" unicode="&#x1ece;" horiz-adv-x="810" 
d="M385 785q6 19 18.5 31t25 22.5t22.5 20.5t12 24q3 27 -11.5 40t-30.5 13q-18 0 -29.5 -9t-23.5 -34l-47 24q5 13 13 25.5t20 22.5t28 16.5t38 6.5q19 0 37.5 -7.5t32 -20.5t21.5 -31t7 -38q0 -22 -8.5 -36t-20.5 -26l-26 -25t-26 -33zM405 732q156 0 262 -109t106 -265
q0 -157 -105.5 -265.5t-262.5 -108.5t-262.5 108.5t-105.5 265.5t105.5 265.5t262.5 108.5zM210 152q80 -80 195 -80t194.5 80.5t79.5 205.5t-79.5 205.5t-194.5 80.5t-194.5 -80.5t-79.5 -205.5t79 -206z" />
    <glyph glyph-name="uni1ECF" unicode="&#x1ecf;" horiz-adv-x="560" 
d="M246 565q6 19 18.5 31t25 22.5t22.5 20.5t12 24q3 27 -11.5 40t-30.5 13q-18 0 -29.5 -9t-23.5 -34l-47 24q5 13 13 25.5t20 22.5t28 16.5t38 6.5q19 0 37.5 -7.5t32 -20.5t21.5 -31t7 -38q0 -22 -8.5 -36t-20.5 -26l-26 -25t-26 -33zM99 431q71 75 181 75t181 -74.5
t71 -186.5t-71 -186.5t-181 -74.5t-181 74.5t-71 186.5t71 186zM167 116q48 -48 113 -48t112.5 48.5t47.5 128.5t-47.5 128.5t-112.5 48.5t-112.5 -48.5t-47.5 -128.5t47 -129z" />
    <glyph glyph-name="uni1ED0" unicode="&#x1ed0;" horiz-adv-x="810" 
d="M612 861h-80l52 128h100zM405 732q156 0 262 -109t106 -265q0 -157 -105.5 -265.5t-262.5 -108.5t-262.5 108.5t-105.5 265.5t105.5 265.5t262.5 108.5zM210 152q80 -80 195 -80t194.5 80.5t79.5 205.5t-79.5 205.5t-194.5 80.5t-194.5 -80.5t-79.5 -205.5t79 -206z
M262 779v5l103 117h80l103 -117v-5h-89l-50 60h-8l-50 -60h-89z" />
    <glyph glyph-name="uni1ED1" unicode="&#x1ed1;" horiz-adv-x="560" 
d="M480 668h-80l52 128h100zM99 431q71 75 181 75t181 -74.5t71 -186.5t-71 -186.5t-181 -74.5t-181 74.5t-71 186.5t71 186zM167 116q48 -48 113 -48t112.5 48.5t47.5 128.5t-47.5 128.5t-112.5 48.5t-112.5 -48.5t-47.5 -128.5t47 -129zM137 594v5l103 117h80l103 -117v-5
h-89l-50 60h-8l-50 -60h-89z" />
    <glyph glyph-name="uni1ED2" unicode="&#x1ed2;" horiz-adv-x="810" 
d="M661 835h-80l-72 128h100zM405 732q156 0 262 -109t106 -265q0 -157 -105.5 -265.5t-262.5 -108.5t-262.5 108.5t-105.5 265.5t105.5 265.5t262.5 108.5zM210 152q80 -80 195 -80t194.5 80.5t79.5 205.5t-79.5 205.5t-194.5 80.5t-194.5 -80.5t-79.5 -205.5t79 -206z
M262 779v5l103 117h80l103 -117v-5h-89l-50 60h-8l-50 -60h-89z" />
    <glyph glyph-name="uni1ED3" unicode="&#x1ed3;" horiz-adv-x="560" 
d="M538 652h-80l-72 128h100zM99 431q71 75 181 75t181 -74.5t71 -186.5t-71 -186.5t-181 -74.5t-181 74.5t-71 186.5t71 186zM167 116q48 -48 113 -48t112.5 48.5t47.5 128.5t-47.5 128.5t-112.5 48.5t-112.5 -48.5t-47.5 -128.5t47 -129zM137 594v5l103 117h80l103 -117
v-5h-89l-50 60h-8l-50 -60h-89z" />
    <glyph glyph-name="uni1ED4" unicode="&#x1ed4;" horiz-adv-x="810" 
d="M547 853q6 19 18.5 31t25 22.5t22.5 20.5t12 24q3 27 -11.5 40t-30.5 13q-18 0 -29.5 -9t-23.5 -34l-47 24q5 13 13 25.5t20 22.5t28 16.5t38 6.5q19 0 37.5 -7.5t32 -20.5t21.5 -31t7 -38q0 -22 -8.5 -36t-20.5 -26l-26 -25t-26 -33zM405 732q156 0 262 -109t106 -265
q0 -157 -105.5 -265.5t-262.5 -108.5t-262.5 108.5t-105.5 265.5t105.5 265.5t262.5 108.5zM210 152q80 -80 195 -80t194.5 80.5t79.5 205.5t-79.5 205.5t-194.5 80.5t-194.5 -80.5t-79.5 -205.5t79 -206zM262 779v5l103 117h80l103 -117v-5h-89l-50 60h-8l-50 -60h-89z" />
    <glyph glyph-name="uni1ED5" unicode="&#x1ed5;" horiz-adv-x="560" 
d="M421 671q6 19 18.5 31t25 22.5t22.5 20.5t12 24q3 27 -11.5 40t-30.5 13q-18 0 -29.5 -9t-23.5 -34l-47 24q5 13 13 25.5t20 22.5t28 16.5t38 6.5q19 0 37.5 -7.5t32 -20.5t21.5 -31t7 -38q0 -22 -8.5 -36t-20.5 -26l-26 -25t-26 -33zM99 431q71 75 181 75t181 -74.5
t71 -186.5t-71 -186.5t-181 -74.5t-181 74.5t-71 186.5t71 186zM167 116q48 -48 113 -48t112.5 48.5t47.5 128.5t-47.5 128.5t-112.5 48.5t-112.5 -48.5t-47.5 -128.5t47 -129zM137 594v5l103 117h80l103 -117v-5h-89l-50 60h-8l-50 -60h-89z" />
    <glyph glyph-name="uni1ED6" unicode="&#x1ed6;" horiz-adv-x="810" 
d="M405 732q156 0 262 -109t106 -265q0 -157 -105.5 -265.5t-262.5 -108.5t-262.5 108.5t-105.5 265.5t105.5 265.5t262.5 108.5zM210 152q80 -80 195 -80t194.5 80.5t79.5 205.5t-79.5 205.5t-194.5 80.5t-194.5 -80.5t-79.5 -205.5t79 -206zM262 779v5l103 117h80
l103 -117v-5h-89l-50 60h-8l-50 -60h-89zM462 923q-26 0 -67.5 22.5t-48.5 22.5q-30 0 -33 -35h-76q0 58 34.5 88t76.5 30q26 0 68 -22.5t48 -22.5q30 0 33 35h76q0 -58 -34.5 -88t-76.5 -30z" />
    <glyph glyph-name="uni1ED7" unicode="&#x1ed7;" horiz-adv-x="560" 
d="M99 431q71 75 181 75t181 -74.5t71 -186.5t-71 -186.5t-181 -74.5t-181 74.5t-71 186.5t71 186zM167 116q48 -48 113 -48t112.5 48.5t47.5 128.5t-47.5 128.5t-112.5 48.5t-112.5 -48.5t-47.5 -128.5t47 -129zM137 594v5l103 117h80l103 -117v-5h-89l-50 60h-8l-50 -60
h-89zM337 739q-26 0 -67.5 22.5t-48.5 22.5q-30 0 -33 -35h-76q0 58 34.5 88t76.5 30q26 0 68 -22.5t48 -22.5q30 0 33 35h76q0 -58 -34.5 -88t-76.5 -30z" />
    <glyph glyph-name="uni1ED8" unicode="&#x1ed8;" horiz-adv-x="810" 
d="M453 -191q-20 -20 -48 -20t-48 20t-20 48t20 48t48 20t48 -20t20 -48t-20 -48zM405 732q156 0 262 -109t106 -265q0 -157 -105.5 -265.5t-262.5 -108.5t-262.5 108.5t-105.5 265.5t105.5 265.5t262.5 108.5zM210 152q80 -80 195 -80t194.5 80.5t79.5 205.5t-79.5 205.5
t-194.5 80.5t-194.5 -80.5t-79.5 -205.5t79 -206zM262 779v5l103 117h80l103 -117v-5h-89l-50 60h-8l-50 -60h-89z" />
    <glyph glyph-name="uni1ED9" unicode="&#x1ed9;" horiz-adv-x="560" 
d="M328 -191q-20 -20 -48 -20t-48 20t-20 48t20 48t48 20t48 -20t20 -48t-20 -48zM99 431q71 75 181 75t181 -74.5t71 -186.5t-71 -186.5t-181 -74.5t-181 74.5t-71 186.5t71 186zM167 116q48 -48 113 -48t112.5 48.5t47.5 128.5t-47.5 128.5t-112.5 48.5t-112.5 -48.5
t-47.5 -128.5t47 -129zM137 594v5l103 117h80l103 -117v-5h-89l-50 60h-8l-50 -60h-89z" />
    <glyph glyph-name="Ohorn" unicode="&#x1a0;" horiz-adv-x="837" 
d="M794 694q-17 -32 -46.5 -55t-65.5 -33q90 -104 90 -248q0 -157 -106 -266q-105 -108 -262 -108t-263 108q-105 109 -105 266t105 265q106 109 263 109q147 0 248 -95q6 1 12 3t11 4q22 10 38 31q-12 8 -19.5 20.5t-7.5 27.5q0 24 17 41t41 17t41 -17t17 -41q0 -15 -8 -29
zM598 152q80 82 80 206q0 125 -80 205q-80 81 -194 81q-116 0 -195 -81q-79 -79 -79 -205t79 -206q80 -80 195 -80q114 0 194 80z" />
    <glyph glyph-name="ohorn" unicode="&#x1a1;" horiz-adv-x="623" 
d="M600 511q0 -16 -8 -29q-34 -63 -102 -86q42 -63 42 -151q0 -111 -71 -187q-71 -74 -181 -74t-181 74q-71 76 -71 187q0 112 71 186q70 75 181 75q110 0 181 -75l3 -3l9 3q12 5 21 13t17 18q-12 8 -19.5 20.5t-7.5 28.5q0 24 17 40.5t41 16.5t41 -16.5t17 -40.5zM392 116
q48 49 48 129t-48 128q-46 49 -112 49q-65 0 -113 -49q-47 -49 -47 -128t47 -129q48 -48 113 -48t112 48z" />
    <glyph glyph-name="uni1EDB" unicode="&#x1edb;" horiz-adv-x="613" 
d="M284 588h-80l52 128h100zM600 511q0 24 -17 40.5t-41 16.5t-41 -16.5t-17 -40.5q0 -16 7.5 -28.5t19.5 -20.5q-8 -10 -17 -18t-21 -13l-9 -3l-3 3q-71 75 -181 75q-111 0 -181 -75q-71 -74 -71 -186q0 -111 71 -187q71 -74 181 -74t181 74q71 76 71 187q0 88 -42 151
q68 23 102 86q8 13 8 29zM392 116q-47 -48 -112 -48t-113 48q-47 50 -47 129t47 128q48 49 113 49q66 0 112 -49q48 -48 48 -128t-48 -129z" />
    <glyph glyph-name="uni1EDD" unicode="&#x1edd;" horiz-adv-x="594" 
d="M356 588h-80l-72 128h100zM600 511q0 24 -17 40.5t-41 16.5t-41 -16.5t-17 -40.5q0 -16 7.5 -28.5t19.5 -20.5q-8 -10 -17 -18t-21 -13l-9 -3l-3 3q-71 75 -181 75q-111 0 -181 -75q-71 -74 -71 -186q0 -111 71 -187q71 -74 181 -74t181 74q71 76 71 187q0 88 -42 151
q68 23 102 86q8 13 8 29zM392 116q-47 -48 -112 -48t-113 48q-47 50 -47 129t47 128q48 49 113 49q66 0 112 -49q48 -48 48 -128t-48 -129z" />
    <glyph glyph-name="uni1EDF" unicode="&#x1edf;" horiz-adv-x="623" 
d="M244 559q6 19 18.5 31t25 22.5t22.5 20.5t12 24q3 27 -11.5 40t-30.5 13q-18 0 -29.5 -9t-23.5 -34l-47 24q5 13 13 25.5t20 22.5t28 16.5t38 6.5q19 0 37.5 -7.5t32 -20.5t21.5 -31t7 -38q0 -22 -8.5 -36t-20.5 -26l-26 -25t-26 -33zM600 511q0 24 -17 40.5t-41 16.5
t-41 -16.5t-17 -40.5q0 -16 7.5 -28.5t19.5 -20.5q-8 -10 -17 -18t-21 -13l-9 -3l-3 3q-71 75 -181 75q-111 0 -181 -75q-71 -74 -71 -186q0 -111 71 -187q71 -74 181 -74t181 74q71 76 71 187q0 88 -42 151q68 23 102 86q8 13 8 29zM392 116q-47 -48 -112 -48t-113 48
q-47 50 -47 129t47 128q48 49 113 49q66 0 112 -49q48 -48 48 -128t-48 -129z" />
    <glyph glyph-name="uni1EE1" unicode="&#x1ee1;" horiz-adv-x="613" 
d="M600 511q0 -16 -8 -29q-34 -63 -102 -86q42 -63 42 -151q0 -111 -71 -187q-71 -74 -181 -74t-181 74q-71 76 -71 187q0 112 71 186q70 75 181 75q110 0 181 -75l3 -3l9 3q12 5 21 13t17 18q-12 8 -19.5 20.5t-7.5 28.5q0 24 17 40.5t41 16.5t41 -16.5t17 -40.5zM392 116
q48 49 48 129t-48 128q-46 49 -112 49q-65 0 -113 -49q-47 -49 -47 -128t47 -129q48 -48 113 -48t112 48zM337 594q-26 0 -67.5 22.5t-48.5 22.5q-30 0 -33 -35h-76q0 58 34.5 88t76.5 30q26 0 68 -22.5t48 -22.5q30 0 33 35h76q0 -58 -34.5 -88t-76.5 -30z" />
    <glyph glyph-name="uni1EE3" unicode="&#x1ee3;" horiz-adv-x="623" 
d="M328 -191q-20 -20 -48 -20t-48 20t-20 48t20 48t48 20t48 -20t20 -48t-20 -48zM600 511q0 -16 -8 -29q-34 -63 -102 -86q42 -63 42 -151q0 -111 -71 -187q-71 -74 -181 -74t-181 74q-71 76 -71 187q0 112 71 186q70 75 181 75q110 0 181 -75l3 -3l9 3q12 5 21 13t17 18
q-12 8 -19.5 20.5t-7.5 28.5q0 24 17 40.5t41 16.5t41 -16.5t17 -40.5zM392 116q48 49 48 129t-48 128q-46 49 -112 49q-65 0 -113 -49q-47 -49 -47 -128t47 -129q48 -48 113 -48t112 48z" />
    <glyph glyph-name="uni1EE4" unicode="&#x1ee4;" horiz-adv-x="642" 
d="M370 -191q-20 -20 -48 -20t-48 20t-20 48t20 48t48 20t48 -20t20 -48t-20 -48zM321 -16q-118 0 -191.5 78t-73.5 204v450h92v-454q0 -85 44.5 -137.5t128.5 -52.5t128.5 52.5t44.5 137.5v454h92v-450q0 -127 -71.5 -204.5t-193.5 -77.5z" />
    <glyph glyph-name="uni1EE5" unicode="&#x1ee5;" 
d="M318 -191q-20 -20 -48 -20t-48 20t-20 48t20 48t48 20t48 -20t20 -48t-20 -48zM486 0h-88v68h-4q-21 -35 -64 -59.5t-91 -24.5q-92 0 -139.5 56t-47.5 150v300h92v-285q0 -137 121 -137q57 0 93 46t36 106v270h92v-490z" />
    <glyph glyph-name="uni1EE6" unicode="&#x1ee6;" horiz-adv-x="642" 
d="M285 787q6 19 18.5 31t25 22.5t22.5 20.5t12 24q3 27 -11.5 40t-30.5 13q-18 0 -29.5 -9t-23.5 -34l-47 24q5 13 13 25.5t20 22.5t28 16.5t38 6.5q19 0 37.5 -7.5t32 -20.5t21.5 -31t7 -38q0 -22 -8.5 -36t-20.5 -26l-26 -25t-26 -33zM321 -16q-118 0 -191.5 78
t-73.5 204v450h92v-454q0 -85 44.5 -137.5t128.5 -52.5t128.5 52.5t44.5 137.5v454h92v-450q0 -127 -71.5 -204.5t-193.5 -77.5z" />
    <glyph glyph-name="uni1EE7" unicode="&#x1ee7;" 
d="M233 555q6 19 18.5 31t25 22.5t22.5 20.5t12 24q3 27 -11.5 40t-30.5 13q-18 0 -29.5 -9t-23.5 -34l-47 24q5 13 13 25.5t20 22.5t28 16.5t38 6.5q19 0 37.5 -7.5t32 -20.5t21.5 -31t7 -38q0 -22 -8.5 -36t-20.5 -26l-26 -25t-26 -33zM486 0h-88v68h-4q-21 -35 -64 -59.5
t-91 -24.5q-92 0 -139.5 56t-47.5 150v300h92v-285q0 -137 121 -137q57 0 93 46t36 106v270h92v-490z" />
    <glyph glyph-name="Uhorn" unicode="&#x1af;" horiz-adv-x="793" 
d="M494 716h92v-450q0 -127 -72 -205q-71 -77 -193 -77q-119 0 -192 78q-73 77 -73 204v450h92v-454q0 -85 44 -137.5t129 -52.5t129 52.5t44 137.5v454zM753 703q0 -15 -8 -29q-23 -42 -65 -68t-94 -26v36q23 0 40 8q12 5 21 13t17 18q-12 8 -19.5 20.5t-7.5 27.5
q0 24 17 41t41 17t41 -17t17 -41z" />
    <glyph glyph-name="uhorn" unicode="&#x1b0;" horiz-adv-x="663" 
d="M642 511q0 -15 -8 -29q-22 -40 -61 -65.5t-87 -28.5v-388h-88v68h-4q-11 -18 -27.5 -33t-36.5 -26.5t-43.5 -18t-47.5 -6.5q-93 0 -140 56t-47 150v300h92v-285q0 -137 121 -137q57 0 93 46t36 106v270h92v-66q8 1 15 2.5t14 5.5q12 5 21 13t17 17q-12 8 -19.5 21
t-7.5 28q0 24 17 41t41 17t41 -17t17 -41z" />
    <glyph glyph-name="uni1EE8" unicode="&#x1ee8;" horiz-adv-x="793" 
d="M494 716h92v-450q0 -127 -72 -205q-71 -77 -193 -77q-119 0 -192 78q-73 77 -73 204v450h92v-454q0 -85 44 -137.5t129 -52.5t129 52.5t44 137.5v454zM753 703q0 -15 -8 -29q-23 -42 -65 -68t-94 -26v36q23 0 40 8q12 5 21 13t17 18q-12 8 -19.5 20.5t-7.5 27.5
q0 24 17 41t41 17t41 -17t17 -41zM325 814h-80l52 128h100z" />
    <glyph glyph-name="uni1EE9" unicode="&#x1ee9;" horiz-adv-x="664" 
d="M642 511q0 -15 -8 -29q-22 -40 -61 -65.5t-87 -28.5v-388h-88v68h-4q-11 -18 -27.5 -33t-36.5 -26.5t-43.5 -18t-47.5 -6.5q-93 0 -140 56t-47 150v300h92v-285q0 -137 121 -137q57 0 93 46t36 106v270h92v-66q8 1 15 2.5t14 5.5q12 5 21 13t17 17q-12 8 -19.5 21
t-7.5 28q0 24 17 41t41 17t41 -17t17 -41zM275 588h-80l52 128h100z" />
    <glyph glyph-name="uni1EEA" unicode="&#x1eea;" horiz-adv-x="796" 
d="M494 716h92v-450q0 -127 -72 -205q-71 -77 -193 -77q-119 0 -192 78q-73 77 -73 204v450h92v-454q0 -85 44 -137.5t129 -52.5t129 52.5t44 137.5v454zM753 703q0 -15 -8 -29q-23 -42 -65 -68t-94 -26v36q23 0 40 8q12 5 21 13t17 18q-12 8 -19.5 20.5t-7.5 27.5
q0 24 17 41t41 17t41 -17t17 -41zM397 814h-80l-72 128h100z" />
    <glyph glyph-name="uni1EEB" unicode="&#x1eeb;" horiz-adv-x="663" 
d="M642 511q0 -15 -8 -29q-22 -40 -61 -65.5t-87 -28.5v-388h-88v68h-4q-11 -18 -27.5 -33t-36.5 -26.5t-43.5 -18t-47.5 -6.5q-93 0 -140 56t-47 150v300h92v-285q0 -137 121 -137q57 0 93 46t36 106v270h92v-66q8 1 15 2.5t14 5.5q12 5 21 13t17 17q-12 8 -19.5 21
t-7.5 28q0 24 17 41t41 17t41 -17t17 -41zM347 588h-80l-72 128h100z" />
    <glyph glyph-name="uni1EEC" unicode="&#x1eec;" horiz-adv-x="795" 
d="M292 788q6 19 18.5 31t25 22.5t22.5 20.5t12 24q3 27 -11.5 40t-30.5 13q-18 0 -29.5 -9t-23.5 -34l-47 24q5 13 13 25.5t20 22.5t28 16.5t38 6.5q19 0 37.5 -7.5t32 -20.5t21.5 -31t7 -38q0 -22 -8.5 -36t-20.5 -26l-26 -25t-26 -33zM494 262q0 -85 -44 -137.5
t-129 -52.5t-129 52.5t-44 137.5v454h-92v-450q0 -127 73 -204q73 -78 192 -78q122 0 193 77q72 78 72 205v450h-92v-454zM753 703q0 24 -17 41t-41 17t-41 -17t-17 -41q0 -15 7.5 -27.5t19.5 -20.5q-8 -10 -17 -18t-21 -13q-17 -8 -40 -8v-36q52 0 94 26t65 68q8 14 8 29z
" />
    <glyph glyph-name="uni1EED" unicode="&#x1eed;" horiz-adv-x="663" 
d="M249 543q6 19 18.5 31t25 22.5t22.5 20.5t12 24q3 27 -11.5 40t-30.5 13q-18 0 -29.5 -9t-23.5 -34l-47 24q5 13 13 25.5t20 22.5t28 16.5t38 6.5q19 0 37.5 -7.5t32 -20.5t21.5 -31t7 -38q0 -22 -8.5 -36t-20.5 -26l-26 -25t-26 -33zM642 511q0 24 -17 41t-41 17
t-41 -17t-17 -41q0 -15 7.5 -28t19.5 -21q-8 -9 -17 -17t-21 -13q-7 -4 -14 -5.5t-15 -2.5v66h-92v-270q0 -60 -36 -106t-93 -46q-121 0 -121 137v285h-92v-300q0 -94 47 -150t140 -56q24 0 47.5 6.5t43.5 18t36.5 26.5t27.5 33h4v-68h88v388q48 3 87 28.5t61 65.5
q8 14 8 29z" />
    <glyph glyph-name="uni1EEE" unicode="&#x1eee;" horiz-adv-x="796" 
d="M378 742q-26 0 -67.5 22.5t-48.5 22.5q-30 0 -33 -35h-76q0 58 34.5 88t76.5 30q26 0 68 -22.5t48 -22.5q30 0 33 35h76q0 -58 -34.5 -88t-76.5 -30zM494 262q0 -85 -44 -137.5t-129 -52.5t-129 52.5t-44 137.5v454h-92v-450q0 -127 73 -204q73 -78 192 -78q122 0 193 77
q72 78 72 205v450h-92v-454zM753 703q0 24 -17 41t-41 17t-41 -17t-17 -41q0 -15 7.5 -27.5t19.5 -20.5q-8 -10 -17 -18t-21 -13q-17 -8 -40 -8v-36q52 0 94 26t65 68q8 14 8 29z" />
    <glyph glyph-name="uni1EEF" unicode="&#x1eef;" horiz-adv-x="661" 
d="M332 581q-26 0 -67.5 22.5t-48.5 22.5q-30 0 -33 -35h-76q0 58 34.5 88t76.5 30q26 0 68 -22.5t48 -22.5q30 0 33 35h76q0 -58 -34.5 -88t-76.5 -30zM642 511q0 -15 -8 -29q-22 -40 -61 -65.5t-87 -28.5v-388h-88v68h-4q-11 -18 -27.5 -33t-36.5 -26.5t-43.5 -18
t-47.5 -6.5q-93 0 -140 56t-47 150v300h92v-285q0 -137 121 -137q57 0 93 46t36 106v270h92v-66q8 1 15 2.5t14 5.5q12 5 21 13t17 17q-12 8 -19.5 21t-7.5 28q0 24 17 41t41 17t41 -17t17 -41z" />
    <glyph glyph-name="uni1EF0" unicode="&#x1ef0;" horiz-adv-x="796" 
d="M370 -191q-20 -20 -48 -20t-48 20t-20 48t20 48t48 20t48 -20t20 -48t-20 -48zM494 716h92v-450q0 -127 -72 -205q-71 -77 -193 -77q-119 0 -192 78q-73 77 -73 204v450h92v-454q0 -85 44 -137.5t129 -52.5t129 52.5t44 137.5v454zM753 703q0 -15 -8 -29q-23 -42 -65 -68
t-94 -26v36q23 0 40 8q12 5 21 13t17 18q-12 8 -19.5 20.5t-7.5 27.5q0 24 17 41t41 17t41 -17t17 -41z" />
    <glyph glyph-name="uni1EF1" unicode="&#x1ef1;" horiz-adv-x="663" 
d="M308 -191q-20 -20 -48 -20t-48 20t-20 48t20 48t48 20t48 -20t20 -48t-20 -48zM642 511q0 -15 -8 -29q-22 -40 -61 -65.5t-87 -28.5v-388h-88v68h-4q-11 -18 -27.5 -33t-36.5 -26.5t-43.5 -18t-47.5 -6.5q-93 0 -140 56t-47 150v300h92v-285q0 -137 121 -137q57 0 93 46
t36 106v270h92v-66q8 1 15 2.5t14 5.5q12 5 21 13t17 17q-12 8 -19.5 21t-7.5 28q0 24 17 41t41 17t41 -17t17 -41z" />
    <glyph glyph-name="Ygrave" unicode="&#x1ef2;" horiz-adv-x="594" 
d="M345 0h-92v333l-241 383h108l177 -291h4l173 291h108l-237 -383v-333zM373 814h-80l-72 128h100z" />
    <glyph glyph-name="ygrave" unicode="&#x1ef3;" horiz-adv-x="498" 
d="M187 -216h-95l114 247l-202 459h100l146 -352h2l142 352h100zM325 588h-80l-72 128h100z" />
    <glyph glyph-name="uni1EF4" unicode="&#x1ef4;" horiz-adv-x="594" 
d="M345 -191q-20 -20 -48 -20t-48 20t-20 48t20 48t48 20t48 -20t20 -48t-20 -48zM347 0h-92v333l-241 383h108l177 -291h4l173 291h108l-237 -383v-333z" />
    <glyph glyph-name="uni1EF5" unicode="&#x1ef5;" horiz-adv-x="498" 
d="M420 -191q-20 -20 -48 -20t-48 20t-20 48t20 48t48 20t48 -20t20 -48t-20 -48zM187 -216h-95l114 247l-202 459h100l146 -352h2l142 352h100z" />
    <glyph glyph-name="uni1EF6" unicode="&#x1ef6;" horiz-adv-x="594" 
d="M258 772q6 19 18.5 31t25 22.5t22.5 20.5t12 24q3 27 -11.5 40t-30.5 13q-18 0 -29.5 -9t-23.5 -34l-47 24q5 13 13 25.5t20 22.5t28 16.5t38 6.5q19 0 37.5 -7.5t32 -20.5t21.5 -31t7 -38q0 -22 -8.5 -36t-20.5 -26l-26 -25t-26 -33zM345 0h-92v333l-241 383h108
l177 -291h4l173 291h108l-237 -383v-333z" />
    <glyph glyph-name="uni1EF7" unicode="&#x1ef7;" horiz-adv-x="498" 
d="M215 547q6 19 18.5 31t25 22.5t22.5 20.5t12 24q3 27 -11.5 40t-30.5 13q-18 0 -29.5 -9t-23.5 -34l-47 24q5 13 13 25.5t20 22.5t28 16.5t38 6.5q19 0 37.5 -7.5t32 -20.5t21.5 -31t7 -38q0 -22 -8.5 -36t-20.5 -26l-26 -25t-26 -33zM187 -216h-95l114 247l-202 459h100
l146 -352h2l142 352h100z" />
    <glyph glyph-name="uni1EF8" unicode="&#x1ef8;" horiz-adv-x="594" 
d="M345 0h-92v333l-241 383h108l177 -291h4l173 291h108l-237 -383v-333zM354 820q-26 0 -67.5 22.5t-48.5 22.5q-30 0 -33 -35h-76q0 58 34.5 88t76.5 30q26 0 68 -22.5t48 -22.5q30 0 33 35h76q0 -58 -34.5 -88t-76.5 -30z" />
    <glyph glyph-name="uni1EF9" unicode="&#x1ef9;" horiz-adv-x="498" 
d="M187 -216h-95l114 247l-202 459h100l146 -352h2l142 352h100zM306 594q-26 0 -67.5 22.5t-48.5 22.5q-30 0 -33 -35h-76q0 58 34.5 88t76.5 30q26 0 68 -22.5t48 -22.5q30 0 33 35h76q0 -58 -34.5 -88t-76.5 -30z" />
    <glyph glyph-name="Dcroat" unicode="&#x110;" horiz-adv-x="709" 
d="M90 0v716h219q165 0 264 -99.5t99 -258.5t-99 -258.5t-264 -99.5h-219zM182 88h127q124 0 196.5 71t72.5 199q0 127 -72.5 198.5t-196.5 71.5h-127v-540zM385.424 317.272h-365.996v77.001h365.996v-77.001z" />
    <glyph glyph-name="dcroat" unicode="&#x111;" horiz-adv-x="589" 
d="M261 -16q-95 0 -164 75t-69 186t69 186t164 75q56 0 100.5 -24t66.5 -60h4l-4 68v226h92v-716h-88v68h-4q-22 -36 -66.5 -60t-100.5 -24zM276 68q65 0 110.5 48t45.5 129t-45.5 129t-110.5 48q-64 0 -110 -48.5t-46 -128.5t46 -128.5t110 -48.5zM573.652 539.08h-283.008
v88.998h283.008v-88.998z" />
    <glyph glyph-name="trademark" unicode="&#x2122;" horiz-adv-x="655" 
d="M169 335h-43v294h-94v41h230v-41h-93v-294zM308 335v335h43l116 -204h2l116 204h44v-335h-44v199l3 56h-3l-104 -184h-25l-105 184h-2l2 -56v-199h-43z" />
    <glyph glyph-name="lessequal" unicode="&#x2264;" horiz-adv-x="533" 
d="M470 137l-390 185v68l390 185v-84l-294 -133v-4l294 -133v-84zM494 0h-438v76h438v-76z" />
    <glyph glyph-name="greaterequal" unicode="&#x2265;" horiz-adv-x="523" 
d="M469 325l-390 -185v84l294 133v4l-294 133v84l390 -185v-68zM494 0h-438v76h438v-76z" />
    <glyph glyph-name="breve" unicode="&#x2d8;" horiz-adv-x="833" 
 />
    <glyph glyph-name="notequal" unicode="&#x2260;" horiz-adv-x="562" 
d="M182 -46l-74 30l323 778l74 -30zM56 376v76h450v-76h-450zM56 186v76h450v-76h-450z" />
    <glyph glyph-name="hungarumlaut" unicode="&#x2dd;" horiz-adv-x="328" 
d="M95 588h-80l52 128h100zM247 588h-80l52 128h100z" />
    <glyph glyph-name="dotaccent" unicode="&#x2d9;" horiz-adv-x="833" 
 />
    <glyph glyph-name="radical" unicode="&#x221a;" horiz-adv-x="833" 
 />
    <glyph glyph-name="approxequal" unicode="&#x2248;" horiz-adv-x="530" 
d="M377 68q-33 0 -116 32.5t-106 32.5q-22 0 -35.5 -15.5t-15.5 -35.5h-72q0 60 36.5 97t84.5 37q36 0 117.5 -32.5t104.5 -32.5q22 0 35.5 15.5t15.5 35.5h72q0 -60 -36.5 -97t-84.5 -37zM377 234q-33 0 -116 32.5t-106 32.5q-22 0 -35.5 -15.5t-15.5 -35.5h-72
q0 60 36.5 97t84.5 37q36 0 117.5 -32.5t104.5 -32.5q22 0 35.5 15.5t15.5 35.5h72q0 -60 -36.5 -97t-84.5 -37z" />
    <glyph glyph-name="infinity" unicode="&#x221e;" horiz-adv-x="833" 
 />
    <glyph glyph-name="perthousand" unicode="&#x2030;" horiz-adv-x="1179" 
d="M213 -8l-57 37l445 663l56 -38zM323 409q-50 -51 -120 -51t-120.5 51t-50.5 120t50.5 120t120.5 51t120.5 -51t50.5 -120t-51 -120zM300 529q0 45 -28 74.5t-69 29.5t-69 -29.5t-28 -74.5q0 -44 28 -74t69 -30t69 30t28 74zM731 35q-50 -51 -120 -51t-120.5 51t-50.5 120
t50.5 120t120.5 51t120.5 -51t50.5 -120t-51 -120zM708 155q0 45 -28 74.5t-69 29.5t-69 -29.5t-28 -74.5q0 -44 28 -74t69 -30t69 30t28 74zM1112 34q-50 -51 -120 -51t-120.5 51t-50.5 120t50.5 120t120.5 51t120.5 -51t50.5 -120t-51 -120zM1089 154q0 45 -28 74.5
t-69 29.5t-69 -29.5t-28 -74.5q0 -44 28 -74t69 -30t69 30t28 74z" />
    <glyph glyph-name="uni1EDA" unicode="&#x1eda;" horiz-adv-x="837" 
d="M892 694q-17 -32 -46.5 -55t-65.5 -33q90 -104 90 -248q0 -157 -106 -266q-105 -108 -262 -108t-263 108q-105 109 -105 266t105 265q106 109 263 109q147 0 248 -95q6 1 12 3t11 4q22 10 38 31q-12 8 -19.5 20.5t-7.5 27.5q0 24 17 41t41 17t41 -17t17 -41q0 -15 -8 -29
zM696 152q80 82 80 206q0 125 -80 205q-80 81 -194 81q-116 0 -195 -81q-79 -79 -79 -205t79 -206q80 -80 195 -80q114 0 194 80zM422 814h-80l52 128h100z" />
    <glyph glyph-name="uni1EDC" unicode="&#x1edc;" horiz-adv-x="837" 
d="M892 694q-17 -32 -46.5 -55t-65.5 -33q90 -104 90 -248q0 -157 -106 -266q-105 -108 -262 -108t-263 108q-105 109 -105 266t105 265q106 109 263 109q147 0 248 -95q6 1 12 3t11 4q22 10 38 31q-12 8 -19.5 20.5t-7.5 27.5q0 24 17 41t41 17t41 -17t17 -41q0 -15 -8 -29
zM696 152q80 82 80 206q0 125 -80 205q-80 81 -194 81q-116 0 -195 -81q-79 -79 -79 -205t79 -206q80 -80 195 -80q114 0 194 80zM494 814h-80l-72 128h100z" />
    <glyph glyph-name="uni1EDE" unicode="&#x1ede;" horiz-adv-x="837" 
d="M385 785q6 19 18.5 31t25 22.5t22.5 20.5t12 24q3 27 -11.5 40t-30.5 13q-18 0 -29.5 -9t-23.5 -34l-47 24q5 13 13 25.5t20 22.5t28 16.5t38 6.5q19 0 37.5 -7.5t32 -20.5t21.5 -31t7 -38q0 -22 -8.5 -36t-20.5 -26l-26 -25t-26 -33zM892 694q8 14 8 29q0 24 -17 41
t-41 17t-41 -17t-17 -41q0 -15 7.5 -27.5t19.5 -20.5q-16 -21 -38 -31q-5 -2 -11 -4t-12 -3q-101 95 -248 95q-157 0 -263 -109q-105 -108 -105 -265t105 -266q106 -108 263 -108t262 108q106 109 106 266q0 144 -90 248q36 10 65.5 33t46.5 55zM696 152q-80 -80 -194 -80
q-115 0 -195 80q-79 80 -79 206t79 205q79 81 195 81q114 0 194 -81q80 -80 80 -205q0 -124 -80 -206z" />
    <glyph glyph-name="uni1EE0" unicode="&#x1ee0;" horiz-adv-x="837" 
d="M892 694q-17 -32 -46.5 -55t-65.5 -33q90 -104 90 -248q0 -157 -106 -266q-105 -108 -262 -108t-263 108q-105 109 -105 266t105 265q106 109 263 109q147 0 248 -95q6 1 12 3t11 4q22 10 38 31q-12 8 -19.5 20.5t-7.5 27.5q0 24 17 41t41 17t41 -17t17 -41q0 -15 -8 -29
zM696 152q80 82 80 206q0 125 -80 205q-80 81 -194 81q-116 0 -195 -81q-79 -79 -79 -205t79 -206q80 -80 195 -80q114 0 194 80zM475 820q-26 0 -67.5 22.5t-48.5 22.5q-30 0 -33 -35h-76q0 58 34.5 88t76.5 30q26 0 68 -22.5t48 -22.5q30 0 33 35h76q0 -58 -34.5 -88
t-76.5 -30z" />
    <glyph glyph-name="uni1EE2" unicode="&#x1ee2;" horiz-adv-x="837" 
d="M453 -191q-20 -20 -48 -20t-48 20t-20 48t20 48t48 20t48 -20t20 -48t-20 -48zM892 694q-17 -32 -46.5 -55t-65.5 -33q90 -104 90 -248q0 -157 -106 -266q-105 -108 -262 -108t-263 108q-105 109 -105 266t105 265q106 109 263 109q147 0 248 -95q6 1 12 3t11 4
q22 10 38 31q-12 8 -19.5 20.5t-7.5 27.5q0 24 17 41t41 17t41 -17t17 -41q0 -15 -8 -29zM696 152q80 82 80 206q0 125 -80 205q-80 81 -194 81q-116 0 -195 -81q-79 -79 -79 -205t79 -206q80 -80 195 -80q114 0 194 80z" />
    <glyph glyph-name="fi" unicode="&#xfb01;" horiz-adv-x="578" 
d="M290 720q44 0 74 -13l-32 -79q-16 8 -42 8q-36 0 -59 -21.5t-23 -62.5v-62h128v-84h-128v-406h-92v406h-92v84h92v65q0 75 48 120t126 45zM514 613q-19 -19 -46 -19t-46 19t-19 46t19 46t46 19t46 -19t19 -46t-19 -46zM514 0h-92v490h92v-490z" />
    <glyph glyph-name="fl" unicode="&#xfb02;" horiz-adv-x="572" 
d="M290 720q44 0 74 -13l-32 -79q-16 8 -42 8q-36 0 -59 -21.5t-23 -62.5v-62h128v-84h-128v-406h-92v406h-92v84h92v65q0 75 48 120t126 45zM516 0h-92v716h92v-716z" />
    <glyph glyph-name="Ydieresis" unicode="&#x178;" horiz-adv-x="594" 
d="M345 0h-92v333l-241 383h108l177 -291h4l173 291h108l-237 -383v-333zM381 828q-22 0 -39.5 17t-17.5 40q0 24 17 40.5t40 16.5q25 0 41 -16t16 -41q0 -23 -16.5 -40t-40.5 -17zM213 828q-22 0 -39.5 17t-17.5 40q0 24 17 40.5t40 16.5q25 0 41 -16t16 -41
q0 -23 -16.5 -40t-40.5 -17z" />
    </font>
</defs>
</svg>
